<svg width="1280" height="832" viewBox="0 0 1280 832" fill="none" xmlns="http://www.w3.org/2000/svg">
<path d="M787.201 695.511C788.831 704.603 786.862 714.701 786.039 723.677C783.472 751.683 782.814 778.904 784.801 806.984C789.177 868.827 796.363 931.234 793.509 993.342C791.903 1028.3 775.439 1068.51 748.864 1092.38C725.271 1113.57 686.14 1116.86 656.168 1114.29C554.396 1105.55 520.047 1000.95 495.326 916.102C481.707 869.359 468.645 829.577 440.658 788.607C411.724 746.251 371.703 693.196 320.758 676.595C285.471 665.096 247.816 669.667 217.535 690.725C183.928 714.093 152.93 737.172 111.015 742.203C63.9646 747.849 19.1027 706.428 -12.4955 676.763C-62.3797 629.93 -99.9173 563.856 -61.3943 496.784C-29.2477 440.814 82.392 419.446 46.8187 339.681C25.8971 292.769 -2.15938 250.401 -26.0962 205.236C-47.096 165.613 -70.8969 110.166 -53.2029 65.3763C-19.3519 -20.3121 87.4403 55.6216 136.016 85.3808C211.24 131.466 325.36 246.891 415.251 158.974C452.774 122.275 453.148 68.4499 459.561 19.9605C465.251 -23.058 472.858 -79.6156 517.421 -100.625C567.86 -124.406 636.029 -85.6818 662.976 -43.5504C707.007 25.2938 710.719 112.078 670.904 182.226C651.355 216.669 634.823 245.972 655.723 284.326C687.546 342.726 741.425 378.313 805.708 391.617C879.832 406.958 955.749 388.819 1030.5 399.63C1102.99 410.114 1166.86 451.014 1200.58 517.183C1226.49 568.027 1248.43 656.742 1190.54 696.128C1132.81 735.394 1052.72 679.11 1009.29 643.052C958.908 601.227 907.001 554.212 839.299 592.388C790.55 619.876 778.758 670.952 779.663 722.02" stroke="#EE7214" stroke-width="8" stroke-linecap="round"/>
<path d="M712.139 673.699C713.547 680.757 712.178 688.536 711.681 695.465C710.129 717.086 710.047 738.131 712.032 759.88C716.404 807.782 722.966 856.165 721.73 904.158C721.034 931.174 708.887 962.016 688.634 980.056C670.654 996.071 640.329 997.999 617.023 995.537C537.883 987.18 509.57 905.729 489.043 839.716C477.734 803.348 466.967 772.372 444.596 740.242C421.468 707.025 389.565 665.359 349.756 651.716C322.183 642.265 293.025 645.208 269.85 661.017C244.131 678.562 220.432 695.924 187.974 699.155C151.539 702.781 116.062 670.036 91.0653 646.593C51.6037 609.583 21.423 557.886 50.27 506.616C74.3422 463.832 160.668 449.065 131.796 386.809C114.816 350.195 92.3687 316.983 73.0755 281.672C56.1494 250.694 36.7997 207.433 49.829 173.069C74.7558 107.327 158.852 167.741 197.028 191.524C256.149 228.355 346.556 319.43 414.95 252.847C443.499 225.053 442.94 183.428 447.155 146.024C450.894 112.841 455.907 69.2158 490.168 53.6682C528.948 36.0701 582.476 67.0958 604.058 100.107C639.323 154.049 643.572 221.232 613.771 274.861C599.139 301.193 586.767 323.597 603.595 353.592C629.219 399.263 671.605 427.638 721.715 438.941C779.497 451.975 838.143 439.141 896.342 448.682C952.78 457.933 1003 490.575 1030.22 542.285C1051.13 582.019 1069.57 650.983 1025.24 680.533C981.054 709.994 917.995 665.198 883.711 636.624C843.943 603.48 802.909 566.298 750.955 594.758C713.546 615.251 705.197 654.57 706.705 694.083" stroke="#527853" stroke-width="8" stroke-linecap="round"/>
</svg>
