<svg width="1280" height="832" viewBox="0 0 1280 832" fill="none" xmlns="http://www.w3.org/2000/svg">
<g clip-path="url(#clip0_11_89)">
<path d="M526.01 433.089C518.868 427.232 513.809 418.273 508.607 410.913C492.376 387.946 475.203 366.815 455.46 346.749C411.979 302.556 365.994 259.757 327.84 210.667C306.362 183.034 292.776 141.762 297.493 106.356C301.681 74.9249 329.306 47.0157 353.771 29.5113C436.843 -29.9259 530.886 27.3328 604.775 75.8114C645.481 102.519 681.245 124.295 729.132 137.284C778.638 150.712 843.523 165.079 893.049 144.628C927.353 130.462 953.023 102.538 962.382 66.8614C972.769 27.2683 981.36 -10.4104 1009.97 -41.451C1042.09 -76.294 1103.1 -73.9184 1146.4 -71.8719C1214.75 -68.641 1286.19 -42.76 1300.44 33.2637C1312.33 96.704 1241.3 185.44 1320.14 223.009C1366.51 245.104 1415.36 259.111 1462.89 277.92C1504.59 294.422 1558.69 321.139 1574.31 366.692C1604.2 453.842 1473.68 465.427 1417.41 474.332C1330.28 488.122 1168.54 474.43 1157.26 599.66C1152.55 651.934 1187.21 693.113 1213.81 734.156C1237.42 770.569 1268.35 818.523 1248.1 863.435C1225.18 914.27 1148.19 929.079 1100.34 914.531C1022.16 890.76 962.986 827.165 947.722 747.963C940.227 709.075 933.775 676.055 892.978 660.454C830.857 636.699 766.773 644.615 709.245 676.233C642.908 712.693 596.946 775.78 533.073 816.092C471.132 855.185 396.001 865.546 327.396 837.113C274.68 815.264 200.388 762.04 218.851 694.493C237.258 627.151 334.716 617.958 391.16 617.182C456.634 616.282 526.636 618.338 553.342 545.345C572.571 492.788 548.377 446.285 514.532 408.034" stroke="#EE7214" stroke-width="8" stroke-linecap="round"/>
<path d="M685.453 392.713C680.797 389.155 677.394 383.586 673.935 379.033C663.144 364.827 651.795 351.805 638.841 339.514C610.309 312.445 580.221 286.314 554.96 256.025C540.74 238.974 531.227 213.106 533.447 190.558C535.417 170.54 552.325 152.246 567.455 140.616C618.832 101.126 679.706 135.377 727.61 164.501C754.001 180.546 777.151 193.572 807.796 200.763C839.478 208.198 880.93 215.892 911.886 201.849C933.327 192.121 948.995 173.859 954.152 151.039C959.875 125.712 964.501 101.639 981.967 81.3373C1001.57 58.549 1040.31 58.7262 1067.8 59.0806C1111.21 59.6403 1157.07 74.4914 1167.76 122.376C1176.68 162.335 1133.58 220.137 1184.39 242.236C1214.27 255.234 1245.55 263.05 1276.09 273.939C1302.89 283.491 1337.77 299.251 1348.67 327.789C1369.52 382.386 1287.02 392.573 1251.54 399.444C1196.59 410.085 1093.74 404.927 1089.32 484.562C1087.47 517.804 1110.34 543.155 1128.11 568.595C1143.86 591.164 1164.52 620.891 1152.66 649.804C1139.23 682.53 1090.74 693.595 1060.09 685.415C1010 672.048 971.096 633.021 959.693 583.143C954.094 558.653 949.284 537.86 923.077 528.858C883.173 515.152 842.714 521.566 806.927 542.864C765.661 567.422 737.894 608.417 698.274 635.365C659.853 661.497 612.442 669.701 568.325 653.17C534.425 640.467 486.161 608.344 496.396 565.12C506.6 522.028 568.192 514.077 603.963 512.356C645.456 510.359 689.885 510.138 705.228 463.283C716.275 429.545 699.922 400.592 677.63 377.079" stroke="#527853" stroke-width="8" stroke-linecap="round"/>
</g>
<defs>
<clipPath id="clip0_11_89">
<rect width="1280" height="832" fill="white"/>
</clipPath>
</defs>
</svg>
