<?xml version="1.0" encoding="UTF-8"?>
<svg xmlns="http://www.w3.org/2000/svg" xmlns:xlink="http://www.w3.org/1999/xlink" width="25px" height="25px" viewBox="0 0 25 25" version="1.1">
<g id="surface1">
<path style=" stroke:none;fill-rule:nonzero;fill:rgb(0%,0%,0%);fill-opacity:1;" d="M 16.601562 0.960938 C 16.601562 0.429688 17.128906 0 17.777344 0 C 18.425781 0 18.949219 0.429688 18.949219 0.960938 L 18.949219 5.175781 C 18.949219 5.707031 18.425781 6.140625 17.777344 6.140625 C 17.128906 6.140625 16.601562 5.707031 16.601562 5.175781 Z M 13.449219 21.496094 C 13.289062 21.496094 13.289062 19.441406 13.449219 19.441406 L 16.664062 19.441406 C 16.824219 19.441406 16.824219 21.496094 16.664062 21.496094 Z M 3.226562 14.023438 C 3.0625 14.023438 3.0625 11.96875 3.226562 11.96875 L 6.4375 11.96875 C 6.601562 11.96875 6.601562 14.023438 6.4375 14.023438 Z M 8.335938 14.023438 C 8.175781 14.023438 8.175781 11.96875 8.335938 11.96875 L 11.550781 11.96875 C 11.710938 11.96875 11.710938 14.023438 11.550781 14.023438 Z M 13.449219 14.023438 C 13.289062 14.023438 13.289062 11.96875 13.449219 11.96875 L 16.664062 11.96875 C 16.824219 11.96875 16.824219 14.023438 16.664062 14.023438 Z M 18.5625 11.96875 L 21.769531 11.96875 C 21.929688 11.96875 21.929688 14.023438 21.769531 14.023438 L 18.5625 14.023438 C 18.402344 14.023438 18.402344 11.96875 18.5625 11.96875 Z M 3.226562 17.761719 C 3.0625 17.761719 3.0625 15.707031 3.226562 15.707031 L 6.4375 15.707031 C 6.601562 15.707031 6.601562 17.761719 6.4375 17.761719 Z M 8.34375 17.761719 C 8.179688 17.761719 8.179688 15.707031 8.34375 15.707031 L 11.550781 15.707031 C 11.710938 15.707031 11.710938 17.761719 11.550781 17.761719 Z M 13.453125 17.761719 C 13.292969 17.761719 13.292969 15.707031 13.453125 15.707031 L 16.664062 15.707031 C 16.824219 15.707031 16.824219 17.761719 16.664062 17.761719 Z M 18.570312 17.761719 C 18.40625 17.761719 18.40625 15.707031 18.570312 15.707031 L 21.769531 15.707031 C 21.929688 15.707031 21.929688 17.761719 21.769531 17.761719 Z M 3.230469 21.496094 C 3.066406 21.496094 3.066406 19.441406 3.230469 19.441406 L 6.4375 19.441406 C 6.601562 19.441406 6.601562 21.496094 6.4375 21.496094 Z M 8.34375 21.496094 C 8.179688 21.496094 8.179688 19.441406 8.34375 19.441406 L 11.550781 19.441406 C 11.710938 19.441406 11.710938 21.496094 11.550781 21.496094 Z M 6.023438 0.960938 C 6.023438 0.429688 6.550781 0 7.199219 0 C 7.847656 0 8.371094 0.429688 8.371094 0.960938 L 8.371094 5.175781 C 8.371094 5.707031 7.847656 6.140625 7.199219 6.140625 C 6.550781 6.140625 6.023438 5.707031 6.023438 5.175781 Z M 1.304688 8.84375 L 23.695312 8.84375 L 23.695312 4.367188 C 23.691406 4.210938 23.628906 4.058594 23.519531 3.945312 C 23.410156 3.835938 23.257812 3.773438 23.097656 3.773438 L 20.953125 3.773438 C 20.59375 3.773438 20.304688 3.480469 20.304688 3.121094 C 20.304688 2.761719 20.59375 2.46875 20.953125 2.46875 L 23.101562 2.46875 C 24.148438 2.472656 24.996094 3.320312 25 4.367188 L 25 23.101562 C 24.996094 24.148438 24.148438 24.996094 23.101562 25 L 1.898438 25 C 0.851562 24.996094 0.00390625 24.148438 0 23.101562 L 0 4.367188 C 0.00390625 3.320312 0.851562 2.472656 1.898438 2.46875 L 4.191406 2.46875 C 4.550781 2.46875 4.84375 2.761719 4.84375 3.121094 C 4.84375 3.480469 4.550781 3.773438 4.191406 3.773438 L 1.898438 3.773438 C 1.742188 3.773438 1.589844 3.835938 1.476562 3.945312 C 1.367188 4.058594 1.304688 4.210938 1.304688 4.367188 Z M 23.695312 10.148438 L 1.304688 10.148438 L 1.304688 23.101562 C 1.304688 23.257812 1.367188 23.410156 1.476562 23.519531 C 1.589844 23.632812 1.742188 23.695312 1.898438 23.695312 L 23.101562 23.695312 C 23.257812 23.695312 23.410156 23.632812 23.523438 23.519531 C 23.632812 23.410156 23.695312 23.257812 23.695312 23.101562 Z M 10.261719 3.773438 C 9.902344 3.773438 9.609375 3.480469 9.609375 3.121094 C 9.609375 2.761719 9.902344 2.46875 10.261719 2.46875 L 14.632812 2.46875 C 14.992188 2.46875 15.28125 2.761719 15.28125 3.121094 C 15.28125 3.480469 14.992188 3.773438 14.632812 3.773438 Z M 10.261719 3.773438 "/>
</g>
</svg>
