<svg width="1280" height="832" viewBox="0 0 1280 832" fill="none" xmlns="http://www.w3.org/2000/svg">
<g clip-path="url(#clip0_11_51)">
<mask id="path-1-outside-1_11_51" maskUnits="userSpaceOnUse" x="-135.389" y="2" width="626" height="164" fill="black">
<rect fill="white" x="-135.389" y="2" width="626" height="164"/>
<path d="M-21.5894 103.2C-21.5894 107.2 -21.8561 110.8 -22.3894 114H-103.389C-102.723 122 -99.9227 128.267 -94.9894 132.8C-90.0561 137.333 -83.9894 139.6 -76.7894 139.6C-66.3894 139.6 -58.9894 135.133 -54.5894 126.2H-24.3894C-27.5894 136.867 -33.7227 145.667 -42.7894 152.6C-51.8561 159.4 -62.9894 162.8 -76.1894 162.8C-86.8561 162.8 -96.4561 160.467 -104.989 155.8C-113.389 151 -119.989 144.267 -124.789 135.6C-129.456 126.933 -131.789 116.933 -131.789 105.6C-131.789 94.1333 -129.456 84.0667 -124.789 75.4C-120.123 66.7333 -113.589 60.0667 -105.189 55.4C-96.7894 50.7333 -87.1227 48.4 -76.1894 48.4C-65.6561 48.4 -56.2561 50.6667 -47.9894 55.2C-39.5894 59.7333 -33.1227 66.2 -28.5894 74.6C-23.9227 82.8667 -21.5894 92.4 -21.5894 103.2ZM-50.5894 95.2C-50.7227 88 -53.3227 82.2667 -58.3894 78C-63.4561 73.6 -69.6561 71.4 -76.9894 71.4C-83.9227 71.4 -89.7894 73.5333 -94.5894 77.8C-99.2561 81.9333 -102.123 87.7333 -103.189 95.2H-50.5894ZM-8.3519 105.6C-8.3519 94.1333 -6.01857 84.1333 -1.3519 75.6C3.31476 66.9333 9.78143 60.2667 18.0481 55.6C26.3148 50.8 35.7814 48.4 46.4481 48.4C60.1814 48.4 71.5148 51.8667 80.4481 58.8C89.5148 65.6 95.5814 75.2 98.6481 87.6H68.4481C66.8481 82.8 64.1148 79.0667 60.2481 76.4C56.5148 73.6 51.8481 72.2 46.2481 72.2C38.2481 72.2 31.9148 75.1333 27.2481 81C22.5814 86.7333 20.2481 94.9333 20.2481 105.6C20.2481 116.133 22.5814 124.333 27.2481 130.2C31.9148 135.933 38.2481 138.8 46.2481 138.8C57.5814 138.8 64.9814 133.733 68.4481 123.6H98.6481C95.5814 135.6 89.5148 145.133 80.4481 152.2C71.3814 159.267 60.0481 162.8 46.4481 162.8C35.7814 162.8 26.3148 160.467 18.0481 155.8C9.78143 151 3.31476 144.333 -1.3519 135.8C-6.01857 127.133 -8.3519 117.067 -8.3519 105.6ZM168.361 162.8C157.694 162.8 148.094 160.467 139.561 155.8C131.027 151 124.294 144.267 119.361 135.6C114.561 126.933 112.161 116.933 112.161 105.6C112.161 94.2667 114.627 84.2667 119.561 75.6C124.627 66.9333 131.494 60.2667 140.161 55.6C148.827 50.8 158.494 48.4 169.161 48.4C179.827 48.4 189.494 50.8 198.161 55.6C206.827 60.2667 213.627 66.9333 218.561 75.6C223.627 84.2667 226.161 94.2667 226.161 105.6C226.161 116.933 223.561 126.933 218.361 135.6C213.294 144.267 206.361 151 197.561 155.8C188.894 160.467 179.161 162.8 168.361 162.8ZM168.361 138.4C173.427 138.4 178.161 137.2 182.561 134.8C187.094 132.267 190.694 128.533 193.361 123.6C196.027 118.667 197.361 112.667 197.361 105.6C197.361 95.0667 194.561 87 188.961 81.4C183.494 75.6667 176.761 72.8 168.761 72.8C160.761 72.8 154.027 75.6667 148.561 81.4C143.227 87 140.561 95.0667 140.561 105.6C140.561 116.133 143.161 124.267 148.361 130C153.694 135.6 160.361 138.4 168.361 138.4ZM297.5 73.2H278.1V161H249.7V73.2H237.1V50.2H249.7V44.6C249.7 31 253.566 21 261.3 14.6C269.033 8.19999 280.7 5.2 296.3 5.6V29.2C289.5 29.0667 284.766 30.2 282.1 32.6C279.433 35 278.1 39.3333 278.1 45.6V50.2H297.5V73.2ZM366.445 73.2H347.045V161H318.645V73.2H306.045V50.2H318.645V44.6C318.645 31 322.512 21 330.245 14.6C337.978 8.19999 349.645 5.2 365.245 5.6V29.2C358.445 29.0667 353.712 30.2 351.045 32.6C348.378 35 347.045 39.3333 347.045 45.6V50.2H366.445V73.2ZM487.59 103.2C487.59 107.2 487.324 110.8 486.79 114H405.79C406.457 122 409.257 128.267 414.19 132.8C419.124 137.333 425.19 139.6 432.39 139.6C442.79 139.6 450.19 135.133 454.59 126.2H484.79C481.59 136.867 475.457 145.667 466.39 152.6C457.324 159.4 446.19 162.8 432.99 162.8C422.324 162.8 412.724 160.467 404.19 155.8C395.79 151 389.19 144.267 384.39 135.6C379.724 126.933 377.39 116.933 377.39 105.6C377.39 94.1333 379.724 84.0667 384.39 75.4C389.057 66.7333 395.59 60.0667 403.99 55.4C412.39 50.7333 422.057 48.4 432.99 48.4C443.524 48.4 452.924 50.6667 461.19 55.2C469.59 59.7333 476.057 66.2 480.59 74.6C485.257 82.8667 487.59 92.4 487.59 103.2ZM458.59 95.2C458.457 88 455.857 82.2667 450.79 78C445.724 73.6 439.524 71.4 432.19 71.4C425.257 71.4 419.39 73.5333 414.59 77.8C409.924 81.9333 407.057 87.7333 405.99 95.2H458.59Z"/>
</mask>
<path d="M-22.3894 114V117H-19.848L-19.4302 114.493L-22.3894 114ZM-103.389 114V111H-106.65L-106.379 114.249L-103.389 114ZM-94.9894 132.8L-97.0193 135.009L-97.0193 135.009L-94.9894 132.8ZM-54.5894 126.2V123.2H-56.4559L-57.2807 124.874L-54.5894 126.2ZM-24.3894 126.2L-21.5159 127.062L-20.3573 123.2H-24.3894V126.2ZM-42.7894 152.6L-40.9894 155L-40.9782 154.992L-40.9671 154.983L-42.7894 152.6ZM-104.989 155.8L-106.478 158.405L-106.453 158.419L-106.429 158.432L-104.989 155.8ZM-124.789 135.6L-127.431 137.022L-127.422 137.038L-127.414 137.053L-124.789 135.6ZM-124.789 75.4L-127.431 73.9777L-127.431 73.9777L-124.789 75.4ZM-105.189 55.4L-103.732 58.0225L-103.732 58.0225L-105.189 55.4ZM-47.9894 55.2L-49.4319 57.8304L-49.4231 57.8353L-49.4142 57.8401L-47.9894 55.2ZM-28.5894 74.6L-31.2295 76.0248L-31.2159 76.0499L-31.2019 76.0748L-28.5894 74.6ZM-50.5894 95.2V98.2H-47.5333L-47.5899 95.1444L-50.5894 95.2ZM-58.3894 78L-60.3565 80.2651L-60.3392 80.28L-60.3218 80.2947L-58.3894 78ZM-94.5894 77.8L-92.6003 80.0458L-92.5963 80.0422L-94.5894 77.8ZM-103.189 95.2L-106.159 94.7757L-106.648 98.2H-103.189V95.2ZM-24.5894 103.2C-24.5894 107.071 -24.8478 110.502 -25.3486 113.507L-19.4302 114.493C-18.8643 111.098 -18.5894 107.329 -18.5894 103.2H-24.5894ZM-22.3894 111H-103.389V117H-22.3894V111ZM-106.379 114.249C-105.663 122.842 -102.613 129.868 -97.0193 135.009L-92.9595 130.591C-97.232 126.665 -99.7825 121.158 -100.4 113.751L-106.379 114.249ZM-97.0193 135.009C-91.4888 140.091 -84.68 142.6 -76.7894 142.6V136.6C-83.2988 136.6 -88.6233 134.576 -92.9595 130.591L-97.0193 135.009ZM-76.7894 142.6C-71.1545 142.6 -66.144 141.387 -61.8891 138.818C-57.6265 136.245 -54.3123 132.427 -51.8981 127.526L-57.2807 124.874C-59.2665 128.906 -61.8523 131.788 -64.9897 133.682C-68.1348 135.58 -72.0243 136.6 -76.7894 136.6V142.6ZM-54.5894 129.2H-24.3894V123.2H-54.5894V129.2ZM-27.2629 125.338C-30.2766 135.384 -36.0335 143.657 -44.6118 150.217L-40.9671 154.983C-31.412 147.676 -24.9022 138.35 -21.5159 127.062L-27.2629 125.338ZM-44.5894 150.2C-53.0545 156.549 -63.5275 159.8 -76.1894 159.8V165.8C-62.4513 165.8 -50.6576 162.251 -40.9894 155L-44.5894 150.2ZM-76.1894 159.8C-86.4028 159.8 -95.4997 157.57 -103.55 153.168L-106.429 158.432C-97.4124 163.363 -87.3093 165.8 -76.1894 165.8V159.8ZM-103.501 153.195C-111.412 148.675 -117.624 142.345 -122.165 134.146L-127.414 137.053C-122.354 146.189 -115.367 153.325 -106.478 158.405L-103.501 153.195ZM-122.148 134.178C-126.546 126.01 -128.789 116.513 -128.789 105.6H-134.789C-134.789 117.354 -132.366 127.856 -127.431 137.022L-122.148 134.178ZM-128.789 105.6C-128.789 94.5476 -126.543 84.9847 -122.148 76.8223L-127.431 73.9777C-132.369 83.1486 -134.789 93.7191 -134.789 105.6H-128.789ZM-122.148 76.8223C-117.746 68.6477 -111.618 62.4035 -103.732 58.0225L-106.646 52.7775C-115.561 57.7299 -122.499 64.819 -127.431 73.9777L-122.148 76.8223ZM-103.732 58.0225C-95.8365 53.6358 -86.6841 51.4 -76.1894 51.4V45.4C-87.5613 45.4 -97.7423 47.8308 -106.646 52.7775L-103.732 58.0225ZM-76.1894 51.4C-66.1001 51.4 -57.2065 53.5669 -49.4319 57.8304L-46.5469 52.5696C-55.3056 47.7664 -65.212 45.4 -76.1894 45.4V51.4ZM-49.4142 57.8401C-41.5291 62.0955 -35.4849 68.1397 -31.2295 76.0248L-25.9493 73.1752C-30.7606 64.2603 -37.6497 57.3712 -46.5646 52.5599L-49.4142 57.8401ZM-31.2019 76.0748C-26.8225 83.8325 -24.5894 92.8445 -24.5894 103.2H-18.5894C-18.5894 91.9555 -21.0229 81.9009 -25.9769 73.1252L-31.2019 76.0748ZM-47.5899 95.1444C-47.7377 87.1641 -50.6659 80.582 -56.457 75.7053L-60.3218 80.2947C-55.9796 83.9514 -53.7078 88.8359 -53.5889 95.2555L-47.5899 95.1444ZM-56.4223 75.7349C-62.087 70.8156 -69.0056 68.4 -76.9894 68.4V74.4C-70.3066 74.4 -64.8252 76.3844 -60.3565 80.2651L-56.4223 75.7349ZM-76.9894 68.4C-84.594 68.4 -91.1877 70.7624 -96.5825 75.5578L-92.5963 80.0422C-88.3911 76.3043 -83.2514 74.4 -76.9894 74.4V68.4ZM-96.5785 75.5542C-101.884 80.2531 -105.014 86.7589 -106.159 94.7757L-100.22 95.6243C-99.2315 88.7078 -96.6285 83.6136 -92.6003 80.0458L-96.5785 75.5542ZM-103.189 98.2H-50.5894V92.2H-103.189V98.2ZM-1.3519 75.6L1.28021 77.0394L1.28489 77.0309L1.28951 77.0223L-1.3519 75.6ZM18.0481 55.6L19.5229 58.2125L19.5387 58.2035L19.5545 58.1944L18.0481 55.6ZM80.4481 58.8L78.6087 61.17L78.6283 61.1851L78.6481 61.2L80.4481 58.8ZM98.6481 87.6V90.6H102.48L101.56 86.8798L98.6481 87.6ZM68.4481 87.6L65.6021 88.5487L66.2858 90.6H68.4481V87.6ZM60.2481 76.4L58.4481 78.8L58.4958 78.8358L58.5449 78.8696L60.2481 76.4ZM27.2481 81L29.5748 82.8938L29.5854 82.8808L29.5959 82.8676L27.2481 81ZM27.2481 130.2L24.9003 132.068L24.9108 132.081L24.9214 132.094L27.2481 130.2ZM68.4481 123.6V120.6H66.3037L65.6096 122.629L68.4481 123.6ZM98.6481 123.6L101.555 124.343L102.511 120.6H98.6481V123.6ZM80.4481 152.2L82.2923 154.566L82.2923 154.566L80.4481 152.2ZM18.0481 155.8L16.5417 158.394L16.5574 158.404L16.5733 158.412L18.0481 155.8ZM-1.3519 135.8L-3.99332 137.222L-3.98869 137.231L-3.98402 137.239L-1.3519 135.8ZM-5.3519 105.6C-5.3519 94.5462 -3.10521 85.0585 1.28021 77.0394L-3.98402 74.1606C-8.93193 83.2082 -11.3519 93.7205 -11.3519 105.6H-5.3519ZM1.28951 77.0223C5.69795 68.8352 11.7685 62.5899 19.5229 58.2125L16.5733 52.9875C7.79435 57.9434 0.93158 65.0315 -3.99332 74.1777L1.28951 77.0223ZM19.5545 58.1944C27.3122 53.6899 36.2478 51.4 46.4481 51.4V45.4C35.3151 45.4 25.3173 47.9101 16.5417 53.0056L19.5545 58.1944ZM46.4481 51.4C59.6623 51.4 70.307 54.7268 78.6087 61.17L82.2875 56.43C72.7226 49.0065 60.7005 45.4 46.4481 45.4V51.4ZM78.6481 61.2C87.0913 67.5324 92.8129 76.5012 95.7358 88.3202L101.56 86.8798C98.35 73.8988 91.9382 63.6676 82.2481 56.4L78.6481 61.2ZM98.6481 84.6H68.4481V90.6H98.6481V84.6ZM71.2942 86.6513C69.5052 81.2844 66.3962 76.9958 61.9513 73.9304L58.5449 78.8696C61.8334 81.1375 64.191 84.3156 65.6021 88.5487L71.2942 86.6513ZM62.0481 74C57.698 70.7374 52.3637 69.2 46.2481 69.2V75.2C51.3325 75.2 55.3316 76.4626 58.4481 78.8L62.0481 74ZM46.2481 69.2C37.4046 69.2 30.1787 72.4967 24.9003 79.1324L29.5959 82.8676C33.6508 77.77 39.0916 75.2 46.2481 75.2V69.2ZM24.9214 79.1062C19.6624 85.5672 17.2481 94.5412 17.2481 105.6H23.2481C23.2481 95.3254 25.5004 87.8995 29.5748 82.8938L24.9214 79.1062ZM17.2481 105.6C17.2481 116.542 19.6695 125.492 24.9003 132.068L29.5959 128.332C25.4934 123.175 23.2481 115.725 23.2481 105.6H17.2481ZM24.9214 132.094C30.2092 138.59 37.4304 141.8 46.2481 141.8V135.8C39.0658 135.8 33.6203 133.276 29.5748 128.306L24.9214 132.094ZM46.2481 141.8C52.36 141.8 57.6766 140.431 61.993 137.475C66.3238 134.51 69.3859 130.127 71.2866 124.571L65.6096 122.629C64.0437 127.206 61.6724 130.423 58.6033 132.525C55.5196 134.636 51.4695 135.8 46.2481 135.8V141.8ZM68.4481 126.6H98.6481V120.6H68.4481V126.6ZM95.7415 122.857C92.8258 134.266 87.1047 143.208 78.6039 149.834L82.2923 154.566C91.9248 147.059 98.3371 136.934 101.555 124.343L95.7415 122.857ZM78.6039 149.834C70.1563 156.418 59.5069 159.8 46.4481 159.8V165.8C60.5893 165.8 72.6066 162.115 82.2923 154.566L78.6039 149.834ZM46.4481 159.8C36.2331 159.8 27.286 157.57 19.5229 153.188L16.5733 158.412C25.3435 163.363 35.3298 165.8 46.4481 165.8V159.8ZM19.5545 153.206C11.7701 148.686 5.68893 142.422 1.28021 134.361L-3.98402 137.239C0.940599 146.244 7.79277 153.314 16.5417 158.394L19.5545 153.206ZM1.28951 134.378C-3.10566 126.215 -5.3519 116.652 -5.3519 105.6H-11.3519C-11.3519 117.481 -8.93149 128.051 -3.99332 137.222L1.28951 134.378ZM139.561 155.8L138.09 158.415L138.105 158.424L138.121 158.432L139.561 155.8ZM119.361 135.6L116.736 137.053L116.745 137.069L116.753 137.084L119.361 135.6ZM119.561 75.6L116.971 74.0859L116.962 74.1009L116.953 74.1159L119.561 75.6ZM140.161 55.6L141.583 58.2414L141.599 58.233L141.614 58.2244L140.161 55.6ZM198.161 55.6L196.707 58.2244L196.723 58.233L196.738 58.2414L198.161 55.6ZM218.561 75.6L215.953 77.0841L215.962 77.0991L215.971 77.1141L218.561 75.6ZM218.361 135.6L215.788 134.057L215.779 134.071L215.771 134.086L218.361 135.6ZM197.561 155.8L198.983 158.441L198.99 158.438L198.997 158.434L197.561 155.8ZM182.561 134.8L183.997 137.434L184.011 137.426L184.024 137.419L182.561 134.8ZM193.361 123.6L196 125.027L196 125.027L193.361 123.6ZM188.961 81.4L186.789 83.4702L186.814 83.4961L186.839 83.5213L188.961 81.4ZM148.561 81.4L146.389 79.3298L146.388 79.331L148.561 81.4ZM148.361 130L146.138 132.015L146.163 132.043L146.188 132.069L148.361 130ZM168.361 159.8C158.147 159.8 149.05 157.57 141 153.168L138.121 158.432C147.138 163.363 157.241 165.8 168.361 165.8V159.8ZM141.031 153.185C132.982 148.657 126.637 142.319 121.968 134.116L116.753 137.084C121.951 146.215 129.073 153.343 138.09 158.415L141.031 153.185ZM121.985 134.146C117.465 125.985 115.161 116.499 115.161 105.6H109.161C109.161 117.368 111.656 127.881 116.736 137.053L121.985 134.146ZM115.161 105.6C115.161 94.7149 117.525 85.2397 122.168 77.0841L116.953 74.1159C111.729 83.2937 109.161 93.8184 109.161 105.6H115.161ZM122.15 77.1141C126.945 68.9134 133.412 62.6413 141.583 58.2414L138.738 52.9586C129.576 57.892 122.31 64.9533 116.971 74.0859L122.15 77.1141ZM141.614 58.2244C149.802 53.6895 158.962 51.4 169.161 51.4V45.4C158.026 45.4 147.852 47.9105 138.707 52.9756L141.614 58.2244ZM169.161 51.4C179.359 51.4 188.519 53.6895 196.707 58.2244L199.614 52.9756C190.469 47.9105 180.296 45.4 169.161 45.4V51.4ZM196.738 58.2414C204.902 62.6375 211.295 68.9 215.953 77.0841L221.168 74.1159C215.96 64.9667 208.752 57.8959 199.583 52.9586L196.738 58.2414ZM215.971 77.1141C220.736 85.2645 223.161 94.7288 223.161 105.6H229.161C229.161 93.8046 226.519 83.2689 221.15 74.0859L215.971 77.1141ZM223.161 105.6C223.161 116.457 220.676 125.911 215.788 134.057L220.933 137.143C226.446 127.956 229.161 117.409 229.161 105.6H223.161ZM215.771 134.086C210.979 142.282 204.444 148.628 196.124 153.166L198.997 158.434C208.277 153.372 215.609 146.251 220.95 137.114L215.771 134.086ZM196.138 153.159C187.95 157.568 178.713 159.8 168.361 159.8V165.8C179.608 165.8 189.838 163.366 198.983 158.441L196.138 153.159ZM168.361 141.4C173.923 141.4 179.151 140.077 183.997 137.434L181.124 132.166C177.17 134.323 172.931 135.4 168.361 135.4V141.4ZM184.024 137.419C189.094 134.585 193.085 130.419 196 125.027L190.721 122.173C188.303 126.648 185.094 129.948 181.097 132.181L184.024 137.419ZM196 125.027C198.957 119.555 200.361 113.038 200.361 105.6H194.361C194.361 112.296 193.097 117.778 190.721 122.173L196 125.027ZM200.361 105.6C200.361 94.5425 197.411 85.6079 191.082 79.2787L186.839 83.5213C191.71 88.3921 194.361 95.5908 194.361 105.6H200.361ZM191.132 79.3298C185.093 72.9961 177.572 69.8 168.761 69.8V75.8C175.949 75.8 181.895 78.3373 186.789 83.4702L191.132 79.3298ZM168.761 69.8C159.949 69.8 152.429 72.9961 146.389 79.3298L150.732 83.4702C155.626 78.3373 161.572 75.8 168.761 75.8V69.8ZM146.388 79.331C140.356 85.6652 137.561 94.5802 137.561 105.6H143.561C143.561 95.5532 146.099 88.3348 150.733 83.469L146.388 79.331ZM137.561 105.6C137.561 116.607 140.281 125.557 146.138 132.015L150.583 127.985C146.04 122.976 143.561 115.66 143.561 105.6H137.561ZM146.188 132.069C152.109 138.286 159.571 141.4 168.361 141.4V135.4C161.15 135.4 155.279 132.914 150.533 127.931L146.188 132.069ZM297.5 73.2V76.2H300.5V73.2H297.5ZM278.1 73.2V70.2H275.1V73.2H278.1ZM278.1 161V164H281.1V161H278.1ZM249.7 161H246.7V164H249.7V161ZM249.7 73.2H252.7V70.2H249.7V73.2ZM237.1 73.2H234.1V76.2H237.1V73.2ZM237.1 50.2V47.2H234.1V50.2H237.1ZM249.7 50.2V53.2H252.7V50.2H249.7ZM261.3 14.6L259.387 12.2888L259.387 12.2888L261.3 14.6ZM296.3 5.6H299.3V2.67594L296.377 2.60098L296.3 5.6ZM296.3 29.2L296.241 32.1994L299.3 32.2594V29.2H296.3ZM282.1 32.6L280.093 30.3701L282.1 32.6ZM278.1 50.2H275.1V53.2H278.1V50.2ZM297.5 50.2H300.5V47.2H297.5V50.2ZM297.5 70.2H278.1V76.2H297.5V70.2ZM275.1 73.2V161H281.1V73.2H275.1ZM278.1 158H249.7V164H278.1V158ZM252.7 161V73.2H246.7V161H252.7ZM249.7 70.2H237.1V76.2H249.7V70.2ZM240.1 73.2V50.2H234.1V73.2H240.1ZM237.1 53.2H249.7V47.2H237.1V53.2ZM252.7 50.2V44.6H246.7V50.2H252.7ZM252.7 44.6C252.7 31.5578 256.39 22.557 263.212 16.9112L259.387 12.2888C250.742 19.443 246.7 30.4422 246.7 44.6H252.7ZM263.212 16.9112C270.149 11.1701 280.964 8.20775 296.223 8.59901L296.377 2.60098C280.436 2.19224 267.917 5.22987 259.387 12.2888L263.212 16.9112ZM293.3 5.6V29.2H299.3V5.6H293.3ZM296.358 26.2006C289.399 26.0641 283.653 27.1656 280.093 30.3701L284.107 34.8299C285.879 33.2344 289.6 32.0692 296.241 32.1994L296.358 26.2006ZM280.093 30.3701C276.456 33.6435 275.1 39.0805 275.1 45.6H281.1C281.1 39.5862 282.41 36.3565 284.107 34.8299L280.093 30.3701ZM275.1 45.6V50.2H281.1V45.6H275.1ZM278.1 53.2H297.5V47.2H278.1V53.2ZM294.5 50.2V73.2H300.5V50.2H294.5ZM366.445 73.2V76.2H369.445V73.2H366.445ZM347.045 73.2V70.2H344.045V73.2H347.045ZM347.045 161V164H350.045V161H347.045ZM318.645 161H315.645V164H318.645V161ZM318.645 73.2H321.645V70.2H318.645V73.2ZM306.045 73.2H303.045V76.2H306.045V73.2ZM306.045 50.2V47.2H303.045V50.2H306.045ZM318.645 50.2V53.2H321.645V50.2H318.645ZM330.245 14.6L328.332 12.2888L328.332 12.2888L330.245 14.6ZM365.245 5.6H368.245V2.67594L365.322 2.60098L365.245 5.6ZM365.245 29.2L365.186 32.1994L368.245 32.2594V29.2H365.245ZM351.045 32.6L349.038 30.3701L351.045 32.6ZM347.045 50.2H344.045V53.2H347.045V50.2ZM366.445 50.2H369.445V47.2H366.445V50.2ZM366.445 70.2H347.045V76.2H366.445V70.2ZM344.045 73.2V161H350.045V73.2H344.045ZM347.045 158H318.645V164H347.045V158ZM321.645 161V73.2H315.645V161H321.645ZM318.645 70.2H306.045V76.2H318.645V70.2ZM309.045 73.2V50.2H303.045V73.2H309.045ZM306.045 53.2H318.645V47.2H306.045V53.2ZM321.645 50.2V44.6H315.645V50.2H321.645ZM321.645 44.6C321.645 31.5578 325.336 22.557 332.158 16.9112L328.332 12.2888C319.688 19.443 315.645 30.4422 315.645 44.6H321.645ZM332.158 16.9112C339.095 11.1701 349.909 8.20775 365.168 8.59901L365.322 2.60098C349.381 2.19224 336.862 5.22987 328.332 12.2888L332.158 16.9112ZM362.245 5.6V29.2H368.245V5.6H362.245ZM365.304 26.2006C358.344 26.0641 352.599 27.1656 349.038 30.3701L353.052 34.8299C354.825 33.2344 358.546 32.0692 365.186 32.1994L365.304 26.2006ZM349.038 30.3701C345.401 33.6435 344.045 39.0805 344.045 45.6H350.045C350.045 39.5862 351.356 36.3565 353.052 34.8299L349.038 30.3701ZM344.045 45.6V50.2H350.045V45.6H344.045ZM347.045 53.2H366.445V47.2H347.045V53.2ZM363.445 50.2V73.2H369.445V50.2H363.445ZM486.79 114V117H489.332L489.749 114.493L486.79 114ZM405.79 114V111H402.53L402.801 114.249L405.79 114ZM414.19 132.8L412.16 135.009L412.16 135.009L414.19 132.8ZM454.59 126.2V123.2H452.724L451.899 124.874L454.59 126.2ZM484.79 126.2L487.664 127.062L488.822 123.2H484.79V126.2ZM466.39 152.6L468.19 155L468.202 154.992L468.213 154.983L466.39 152.6ZM404.19 155.8L402.702 158.405L402.726 158.419L402.751 158.432L404.19 155.8ZM384.39 135.6L381.749 137.022L381.757 137.038L381.766 137.053L384.39 135.6ZM384.39 75.4L381.749 73.9777L381.749 73.9777L384.39 75.4ZM403.99 55.4L405.447 58.0225L405.447 58.0225L403.99 55.4ZM461.19 55.2L459.748 57.8304L459.757 57.8353L459.765 57.8401L461.19 55.2ZM480.59 74.6L477.95 76.0248L477.964 76.0499L477.978 76.0748L480.59 74.6ZM458.59 95.2V98.2H461.646L461.59 95.1444L458.59 95.2ZM450.79 78L448.823 80.2651L448.84 80.28L448.858 80.2947L450.79 78ZM414.59 77.8L416.579 80.0458L416.583 80.0422L414.59 77.8ZM405.99 95.2L403.02 94.7757L402.531 98.2H405.99V95.2ZM484.59 103.2C484.59 107.071 484.332 110.502 483.831 113.507L489.749 114.493C490.315 111.098 490.59 107.329 490.59 103.2H484.59ZM486.79 111H405.79V117H486.79V111ZM402.801 114.249C403.517 122.842 406.566 129.868 412.16 135.009L416.22 130.591C411.948 126.665 409.397 121.158 408.78 113.751L402.801 114.249ZM412.16 135.009C417.691 140.091 424.5 142.6 432.39 142.6V136.6C425.881 136.6 420.556 134.576 416.22 130.591L412.16 135.009ZM432.39 142.6C438.025 142.6 443.036 141.387 447.291 138.818C451.553 136.245 454.867 132.427 457.282 127.526L451.899 124.874C449.913 128.906 447.327 131.788 444.19 133.682C441.045 135.58 437.155 136.6 432.39 136.6V142.6ZM454.59 129.2H484.79V123.2H454.59V129.2ZM481.917 125.338C478.903 135.384 473.146 143.657 464.568 150.217L468.213 154.983C477.768 147.676 484.277 138.35 487.664 127.062L481.917 125.338ZM464.59 150.2C456.125 156.549 445.652 159.8 432.99 159.8V165.8C446.728 165.8 458.522 162.251 468.19 155L464.59 150.2ZM432.99 159.8C422.777 159.8 413.68 157.57 405.63 153.168L402.751 158.432C411.767 163.363 421.87 165.8 432.99 165.8V159.8ZM405.679 153.195C397.768 148.675 391.555 142.345 387.015 134.146L381.766 137.053C386.825 146.189 393.813 153.325 402.702 158.405L405.679 153.195ZM387.032 134.178C382.634 126.01 380.39 116.513 380.39 105.6H374.39C374.39 117.354 376.813 127.856 381.749 137.022L387.032 134.178ZM380.39 105.6C380.39 94.5476 382.637 84.9847 387.032 76.8223L381.749 73.9777C376.811 83.1486 374.39 93.7191 374.39 105.6H380.39ZM387.032 76.8223C391.433 68.6477 397.561 62.4035 405.447 58.0225L402.533 52.7775C393.619 57.7299 386.68 64.819 381.749 73.9777L387.032 76.8223ZM405.447 58.0225C413.343 53.6358 422.496 51.4 432.99 51.4V45.4C421.618 45.4 411.437 47.8308 402.533 52.7775L405.447 58.0225ZM432.99 51.4C443.08 51.4 451.973 53.5669 459.748 57.8304L462.633 52.5696C453.874 47.7664 443.968 45.4 432.99 45.4V51.4ZM459.765 57.8401C467.651 62.0955 473.695 68.1397 477.95 76.0248L483.23 73.1752C478.419 64.2603 471.53 57.3712 462.615 52.5599L459.765 57.8401ZM477.978 76.0748C482.357 83.8325 484.59 92.8445 484.59 103.2H490.59C490.59 91.9555 488.157 81.9009 483.203 73.1252L477.978 76.0748ZM461.59 95.1444C461.442 87.1641 458.514 80.582 452.723 75.7053L448.858 80.2947C453.2 83.9514 455.472 88.8359 455.591 95.2555L461.59 95.1444ZM452.757 75.7349C447.093 70.8156 440.174 68.4 432.19 68.4V74.4C438.873 74.4 444.355 76.3844 448.823 80.2651L452.757 75.7349ZM432.19 68.4C424.586 68.4 417.992 70.7624 412.597 75.5578L416.583 80.0422C420.789 76.3043 425.928 74.4 432.19 74.4V68.4ZM412.601 75.5542C407.296 80.2531 404.166 86.7589 403.02 94.7757L408.96 95.6243C409.948 88.7078 412.551 83.6136 416.579 80.0458L412.601 75.5542ZM405.99 98.2H458.59V92.2H405.99V98.2Z" fill="#527853" mask="url(#path-1-outside-1_11_51)"/>
<mask id="path-3-outside-2_11_51" maskUnits="userSpaceOnUse" x="-172" y="394.257" width="626" height="164" fill="black">
<rect fill="white" x="-172" y="394.257" width="626" height="164"/>
<path d="M-58.2 495.457C-58.2 499.457 -58.4667 503.057 -59 506.257H-140C-139.333 514.257 -136.533 520.523 -131.6 525.057C-126.667 529.59 -120.6 531.857 -113.4 531.857C-103 531.857 -95.6 527.39 -91.2 518.457H-61C-64.2 529.123 -70.3333 537.923 -79.4 544.857C-88.4667 551.657 -99.6 555.057 -112.8 555.057C-123.467 555.057 -133.067 552.723 -141.6 548.057C-150 543.257 -156.6 536.523 -161.4 527.857C-166.067 519.19 -168.4 509.19 -168.4 497.857C-168.4 486.39 -166.067 476.323 -161.4 467.657C-156.733 458.99 -150.2 452.323 -141.8 447.657C-133.4 442.99 -123.733 440.657 -112.8 440.657C-102.267 440.657 -92.8667 442.923 -84.6 447.457C-76.2 451.99 -69.7333 458.457 -65.2 466.857C-60.5333 475.123 -58.2 484.657 -58.2 495.457ZM-87.2 487.457C-87.3333 480.257 -89.9333 474.523 -95 470.257C-100.067 465.857 -106.267 463.657 -113.6 463.657C-120.533 463.657 -126.4 465.79 -131.2 470.057C-135.867 474.19 -138.733 479.99 -139.8 487.457H-87.2ZM-44.9625 497.857C-44.9625 486.39 -42.6292 476.39 -37.9625 467.857C-33.2958 459.19 -26.8292 452.523 -18.5625 447.857C-10.2958 443.057 -0.829164 440.657 9.8375 440.657C23.5708 440.657 34.9042 444.123 43.8375 451.057C52.9042 457.857 58.9708 467.457 62.0375 479.857H31.8375C30.2375 475.057 27.5042 471.323 23.6375 468.657C19.9042 465.857 15.2375 464.457 9.6375 464.457C1.6375 464.457 -4.69583 467.39 -9.3625 473.257C-14.0292 478.99 -16.3625 487.19 -16.3625 497.857C-16.3625 508.39 -14.0292 516.59 -9.3625 522.457C-4.69583 528.19 1.6375 531.057 9.6375 531.057C20.9708 531.057 28.3708 525.99 31.8375 515.857H62.0375C58.9708 527.857 52.9042 537.39 43.8375 544.457C34.7708 551.523 23.4375 555.057 9.8375 555.057C-0.829164 555.057 -10.2958 552.723 -18.5625 548.057C-26.8292 543.257 -33.2958 536.59 -37.9625 528.057C-42.6292 519.39 -44.9625 509.323 -44.9625 497.857ZM131.75 555.057C121.083 555.057 111.483 552.723 102.95 548.057C94.4167 543.257 87.6833 536.523 82.75 527.857C77.95 519.19 75.55 509.19 75.55 497.857C75.55 486.523 78.0167 476.523 82.95 467.857C88.0167 459.19 94.8833 452.523 103.55 447.857C112.217 443.057 121.883 440.657 132.55 440.657C143.217 440.657 152.883 443.057 161.55 447.857C170.217 452.523 177.017 459.19 181.95 467.857C187.017 476.523 189.55 486.523 189.55 497.857C189.55 509.19 186.95 519.19 181.75 527.857C176.683 536.523 169.75 543.257 160.95 548.057C152.283 552.723 142.55 555.057 131.75 555.057ZM131.75 530.657C136.817 530.657 141.55 529.457 145.95 527.057C150.483 524.523 154.083 520.79 156.75 515.857C159.417 510.923 160.75 504.923 160.75 497.857C160.75 487.323 157.95 479.257 152.35 473.657C146.883 467.923 140.15 465.057 132.15 465.057C124.15 465.057 117.417 467.923 111.95 473.657C106.617 479.257 103.95 487.323 103.95 497.857C103.95 508.39 106.55 516.523 111.75 522.257C117.083 527.857 123.75 530.657 131.75 530.657ZM260.889 465.457H241.489V553.257H213.089V465.457H200.489V442.457H213.089V436.857C213.089 423.257 216.956 413.257 224.689 406.857C232.422 400.457 244.089 397.457 259.689 397.857V421.457C252.889 421.323 248.156 422.457 245.489 424.857C242.822 427.257 241.489 431.59 241.489 437.857V442.457H260.889V465.457ZM329.834 465.457H310.434V553.257H282.034V465.457H269.434V442.457H282.034V436.857C282.034 423.257 285.901 413.257 293.634 406.857C301.368 400.457 313.034 397.457 328.634 397.857V421.457C321.834 421.323 317.101 422.457 314.434 424.857C311.768 427.257 310.434 431.59 310.434 437.857V442.457H329.834V465.457ZM450.98 495.457C450.98 499.457 450.713 503.057 450.18 506.257H369.18C369.846 514.257 372.646 520.523 377.58 525.057C382.513 529.59 388.58 531.857 395.78 531.857C406.18 531.857 413.58 527.39 417.98 518.457H448.18C444.98 529.123 438.846 537.923 429.78 544.857C420.713 551.657 409.58 555.057 396.38 555.057C385.713 555.057 376.113 552.723 367.58 548.057C359.18 543.257 352.58 536.523 347.78 527.857C343.113 519.19 340.78 509.19 340.78 497.857C340.78 486.39 343.113 476.323 347.78 467.657C352.446 458.99 358.98 452.323 367.38 447.657C375.78 442.99 385.446 440.657 396.38 440.657C406.913 440.657 416.313 442.923 424.58 447.457C432.98 451.99 439.446 458.457 443.98 466.857C448.646 475.123 450.98 484.657 450.98 495.457ZM421.98 487.457C421.846 480.257 419.246 474.523 414.18 470.257C409.113 465.857 402.913 463.657 395.58 463.657C388.646 463.657 382.78 465.79 377.98 470.057C373.313 474.19 370.446 479.99 369.38 487.457H421.98Z"/>
</mask>
<path d="M-59 506.257V509.257H-56.4586L-56.0408 506.75L-59 506.257ZM-140 506.257V503.257H-143.26L-142.99 506.506L-140 506.257ZM-131.6 525.057L-133.63 527.266L-133.63 527.266L-131.6 525.057ZM-91.2 518.457V515.457H-93.0665L-93.8913 517.131L-91.2 518.457ZM-61 518.457L-58.1265 519.319L-56.9679 515.457H-61V518.457ZM-79.4 544.857L-77.6 547.257L-77.5888 547.248L-77.5776 547.24L-79.4 544.857ZM-141.6 548.057L-143.088 550.661L-143.064 550.675L-143.039 550.689L-141.6 548.057ZM-161.4 527.857L-164.041 529.279L-164.033 529.295L-164.024 529.31L-161.4 527.857ZM-161.4 467.657L-164.041 466.234L-164.041 466.234L-161.4 467.657ZM-141.8 447.657L-140.343 450.279L-140.343 450.279L-141.8 447.657ZM-84.6 447.457L-86.0425 450.087L-86.0337 450.092L-86.0248 450.097L-84.6 447.457ZM-65.2 466.857L-67.8401 468.282L-67.8265 468.307L-67.8125 468.331L-65.2 466.857ZM-87.2 487.457V490.457H-84.1439L-84.2005 487.401L-87.2 487.457ZM-95 470.257L-96.9671 472.522L-96.9498 472.537L-96.9324 472.551L-95 470.257ZM-131.2 470.057L-129.211 472.302L-129.207 472.299L-131.2 470.057ZM-139.8 487.457L-142.77 487.032L-143.259 490.457H-139.8V487.457ZM-61.2 495.457C-61.2 499.328 -61.4584 502.759 -61.9592 505.764L-56.0408 506.75C-55.4749 503.355 -55.2 499.585 -55.2 495.457H-61.2ZM-59 503.257H-140V509.257H-59V503.257ZM-142.99 506.506C-142.274 515.099 -139.224 522.125 -133.63 527.266L-129.57 522.848C-133.843 518.922 -136.393 513.414 -137.01 506.008L-142.99 506.506ZM-133.63 527.266C-128.099 532.348 -121.291 534.857 -113.4 534.857V528.857C-119.909 528.857 -125.234 526.832 -129.57 522.848L-133.63 527.266ZM-113.4 534.857C-107.765 534.857 -102.755 533.643 -98.4997 531.075C-94.2371 528.502 -90.9229 524.684 -88.5087 519.782L-93.8913 517.131C-95.8771 521.163 -98.4629 524.045 -101.6 525.938C-104.745 527.837 -108.635 528.857 -113.4 528.857V534.857ZM-91.2 521.457H-61V515.457H-91.2V521.457ZM-63.8735 517.595C-66.8872 527.64 -72.6441 535.914 -81.2223 542.474L-77.5776 547.24C-68.0226 539.933 -61.5128 530.606 -58.1265 519.319L-63.8735 517.595ZM-81.2 542.457C-89.6651 548.806 -100.138 552.057 -112.8 552.057V558.057C-99.0619 558.057 -87.2682 554.508 -77.6 547.257L-81.2 542.457ZM-112.8 552.057C-123.013 552.057 -132.11 549.827 -140.161 545.425L-143.039 550.689C-134.023 555.62 -123.92 558.057 -112.8 558.057V552.057ZM-140.112 545.452C-148.023 540.931 -154.235 534.602 -158.776 526.403L-164.024 529.31C-158.965 538.445 -151.977 545.582 -143.088 550.661L-140.112 545.452ZM-158.759 526.434C-163.156 518.267 -165.4 508.769 -165.4 497.857H-171.4C-171.4 509.611 -168.977 520.113 -164.041 529.279L-158.759 526.434ZM-165.4 497.857C-165.4 486.804 -163.154 477.241 -158.759 469.079L-164.041 466.234C-168.98 475.405 -171.4 485.976 -171.4 497.857H-165.4ZM-158.759 469.079C-154.357 460.904 -148.229 454.66 -140.343 450.279L-143.257 445.034C-152.171 449.987 -159.11 457.076 -164.041 466.234L-158.759 469.079ZM-140.343 450.279C-132.447 445.893 -123.295 443.657 -112.8 443.657V437.657C-124.172 437.657 -134.353 440.088 -143.257 445.034L-140.343 450.279ZM-112.8 443.657C-102.711 443.657 -93.8171 445.824 -86.0425 450.087L-83.1575 444.826C-91.9162 440.023 -101.823 437.657 -112.8 437.657V443.657ZM-86.0248 450.097C-78.1397 454.352 -72.0955 460.396 -67.8401 468.282L-62.5599 465.432C-67.3712 456.517 -74.2603 449.628 -83.1752 444.817L-86.0248 450.097ZM-67.8125 468.331C-63.4331 476.089 -61.2 485.101 -61.2 495.457H-55.2C-55.2 484.212 -57.6335 474.158 -62.5875 465.382L-67.8125 468.331ZM-84.2005 487.401C-84.3483 479.421 -87.2765 472.839 -93.0676 467.962L-96.9324 472.551C-92.5902 476.208 -90.3184 481.093 -90.1995 487.512L-84.2005 487.401ZM-93.0329 467.992C-98.6976 463.072 -105.616 460.657 -113.6 460.657V466.657C-106.917 466.657 -101.436 468.641 -96.9671 472.522L-93.0329 467.992ZM-113.6 460.657C-121.205 460.657 -127.798 463.019 -133.193 467.814L-129.207 472.299C-125.002 468.561 -119.862 466.657 -113.6 466.657V460.657ZM-133.189 467.811C-138.494 472.51 -141.625 479.016 -142.77 487.032L-136.83 487.881C-135.842 480.964 -133.239 475.87 -129.211 472.302L-133.189 467.811ZM-139.8 490.457H-87.2V484.457H-139.8V490.457ZM-37.9625 467.857L-35.3304 469.296L-35.3257 469.288L-35.3211 469.279L-37.9625 467.857ZM-18.5625 447.857L-17.0877 450.469L-17.0718 450.46L-17.0561 450.451L-18.5625 447.857ZM43.8375 451.057L41.9981 453.427L42.0177 453.442L42.0375 453.457L43.8375 451.057ZM62.0375 479.857V482.857H65.8698L64.9498 479.136L62.0375 479.857ZM31.8375 479.857L28.9915 480.805L29.6752 482.857H31.8375V479.857ZM23.6375 468.657L21.8375 471.057L21.8852 471.092L21.9343 471.126L23.6375 468.657ZM-9.3625 473.257L-7.03581 475.151L-7.02518 475.137L-7.01469 475.124L-9.3625 473.257ZM-9.3625 522.457L-11.7103 524.324L-11.6998 524.337L-11.6892 524.351L-9.3625 522.457ZM31.8375 515.857V512.857H29.6931L28.999 514.886L31.8375 515.857ZM62.0375 515.857L64.9441 516.6L65.9006 512.857H62.0375V515.857ZM43.8375 544.457L45.6817 546.823L45.6817 546.823L43.8375 544.457ZM-18.5625 548.057L-20.0689 550.651L-20.0531 550.66L-20.0373 550.669L-18.5625 548.057ZM-37.9625 528.057L-40.6039 529.479L-40.5993 529.488L-40.5946 529.496L-37.9625 528.057ZM-41.9625 497.857C-41.9625 486.803 -39.7158 477.315 -35.3304 469.296L-40.5946 466.417C-45.5425 475.465 -47.9625 485.977 -47.9625 497.857H-41.9625ZM-35.3211 469.279C-30.9126 461.092 -24.8421 454.847 -17.0877 450.469L-20.0373 445.244C-28.8162 450.2 -35.679 457.288 -40.6039 466.434L-35.3211 469.279ZM-17.0561 450.451C-9.29837 445.947 -0.362787 443.657 9.8375 443.657V437.657C-1.29554 437.657 -11.2933 440.167 -20.0689 445.262L-17.0561 450.451ZM9.8375 443.657C23.0517 443.657 33.6964 446.984 41.9981 453.427L45.6769 448.687C36.112 441.263 24.0899 437.657 9.8375 437.657V443.657ZM42.0375 453.457C50.4807 459.789 56.2023 468.758 59.1252 480.577L64.9498 479.136C61.7394 466.155 55.3276 455.924 45.6375 448.657L42.0375 453.457ZM62.0375 476.857H31.8375V482.857H62.0375V476.857ZM34.6836 478.908C32.8946 473.541 29.7856 469.253 25.3407 466.187L21.9343 471.126C25.2228 473.394 27.5804 476.572 28.9915 480.805L34.6836 478.908ZM25.4375 466.257C21.0874 462.994 15.7531 461.457 9.6375 461.457V467.457C14.7219 467.457 18.721 468.719 21.8375 471.057L25.4375 466.257ZM9.6375 461.457C0.793967 461.457 -6.43185 464.753 -11.7103 471.389L-7.01469 475.124C-2.95981 470.027 2.48104 467.457 9.6375 467.457V461.457ZM-11.6892 471.363C-16.9482 477.824 -19.3625 486.798 -19.3625 497.857H-13.3625C-13.3625 487.582 -11.1102 480.156 -7.03581 475.151L-11.6892 471.363ZM-19.3625 497.857C-19.3625 508.799 -16.9411 517.748 -11.7103 524.324L-7.01469 520.589C-11.1172 515.432 -13.3625 507.981 -13.3625 497.857H-19.3625ZM-11.6892 524.351C-6.4014 530.847 0.81977 534.057 9.6375 534.057V528.057C2.45523 528.057 -2.99027 525.533 -7.03581 520.563L-11.6892 524.351ZM9.6375 534.057C15.7494 534.057 21.066 532.687 25.3824 529.732C29.7132 526.767 32.7753 522.384 34.676 516.828L28.999 514.886C27.4331 519.463 25.0618 522.68 21.9927 524.781C18.909 526.893 14.8589 528.057 9.6375 528.057V534.057ZM31.8375 518.857H62.0375V512.857H31.8375V518.857ZM59.1309 515.114C56.2152 526.523 50.4941 535.465 41.9933 542.091L45.6817 546.823C55.3142 539.315 61.7265 529.19 64.9441 516.6L59.1309 515.114ZM41.9933 542.091C33.5457 548.675 22.8963 552.057 9.8375 552.057V558.057C23.9787 558.057 35.996 554.372 45.6817 546.823L41.9933 542.091ZM9.8375 552.057C-0.377506 552.057 -9.32455 549.827 -17.0877 545.444L-20.0373 550.669C-11.2671 555.62 -1.28082 558.057 9.8375 558.057V552.057ZM-17.0561 545.462C-24.8405 540.942 -30.9217 534.679 -35.3304 526.617L-40.5946 529.496C-35.67 538.501 -28.8178 545.571 -20.0689 550.651L-17.0561 545.462ZM-35.3211 526.634C-39.7163 518.472 -41.9625 508.909 -41.9625 497.857H-47.9625C-47.9625 509.738 -45.5421 520.308 -40.6039 529.479L-35.3211 526.634ZM102.95 548.057L101.479 550.671L101.495 550.68L101.511 550.689L102.95 548.057ZM82.75 527.857L80.1256 529.31L80.1341 529.326L80.1428 529.341L82.75 527.857ZM82.95 467.857L80.3601 466.343L80.3514 466.358L80.3428 466.373L82.95 467.857ZM103.55 447.857L104.972 450.498L104.988 450.49L105.004 450.481L103.55 447.857ZM161.55 447.857L160.097 450.481L160.112 450.49L160.128 450.498L161.55 447.857ZM181.95 467.857L179.343 469.341L179.351 469.356L179.36 469.371L181.95 467.857ZM181.75 527.857L179.178 526.313L179.169 526.328L179.16 526.343L181.75 527.857ZM160.95 548.057L162.372 550.698L162.379 550.694L162.387 550.69L160.95 548.057ZM145.95 527.057L147.387 529.69L147.4 529.683L147.413 529.676L145.95 527.057ZM156.75 515.857L159.389 517.283L159.389 517.283L156.75 515.857ZM152.35 473.657L150.179 475.727L150.203 475.753L150.229 475.778L152.35 473.657ZM111.95 473.657L109.779 471.586L109.778 471.588L111.95 473.657ZM111.75 522.257L109.528 524.272L109.552 524.299L109.578 524.326L111.75 522.257ZM131.75 552.057C121.537 552.057 112.44 549.827 104.389 545.425L101.511 550.689C110.527 555.62 120.63 558.057 131.75 558.057V552.057ZM104.421 545.442C96.371 540.914 90.0266 534.576 85.3572 526.373L80.1428 529.341C85.3401 538.471 92.4624 545.599 101.479 550.671L104.421 545.442ZM85.3744 526.403C80.8543 518.242 78.55 508.756 78.55 497.857H72.55C72.55 509.624 75.0457 520.138 80.1256 529.31L85.3744 526.403ZM78.55 497.857C78.55 486.972 80.9148 477.496 85.5572 469.341L80.3428 466.373C75.1185 475.55 72.55 486.075 72.55 497.857H78.55ZM85.5399 469.371C90.3342 461.17 96.8011 454.898 104.972 450.498L102.128 445.215C92.9656 450.149 85.6992 457.21 80.3601 466.343L85.5399 469.371ZM105.004 450.481C113.191 445.946 122.352 443.657 132.55 443.657V437.657C121.415 437.657 111.242 440.167 102.097 445.232L105.004 450.481ZM132.55 443.657C142.748 443.657 151.909 445.946 160.097 450.481L163.004 445.232C153.858 440.167 143.685 437.657 132.55 437.657V443.657ZM160.128 450.498C168.292 454.894 174.684 461.157 179.343 469.341L184.557 466.373C179.349 457.223 172.142 450.153 162.972 445.215L160.128 450.498ZM179.36 469.371C184.125 477.521 186.55 486.985 186.55 497.857H192.55C192.55 486.061 189.908 475.526 184.54 466.343L179.36 469.371ZM186.55 497.857C186.55 508.714 184.065 518.168 179.178 526.313L184.322 529.4C189.835 520.213 192.55 509.666 192.55 497.857H186.55ZM179.16 526.343C174.368 534.539 167.834 540.885 159.513 545.423L162.387 550.69C171.666 545.629 178.998 538.508 184.34 529.371L179.16 526.343ZM159.528 545.415C151.34 549.824 142.103 552.057 131.75 552.057V558.057C142.997 558.057 153.227 555.622 162.372 550.698L159.528 545.415ZM131.75 533.657C137.313 533.657 142.541 532.333 147.387 529.69L144.513 524.423C140.559 526.58 136.32 527.657 131.75 527.657V533.657ZM147.413 529.676C152.484 526.842 156.474 522.676 159.389 517.283L154.111 514.43C151.692 518.904 148.483 522.205 144.487 524.438L147.413 529.676ZM159.389 517.283C162.346 511.812 163.75 505.294 163.75 497.857H157.75C157.75 504.552 156.487 510.035 154.111 514.43L159.389 517.283ZM163.75 497.857C163.75 486.799 160.801 477.865 154.471 471.535L150.229 475.778C155.099 480.649 157.75 487.848 157.75 497.857H163.75ZM154.521 471.586C148.482 465.253 140.961 462.057 132.15 462.057V468.057C139.339 468.057 145.285 470.594 150.179 475.727L154.521 471.586ZM132.15 462.057C123.339 462.057 115.818 465.253 109.779 471.586L114.121 475.727C119.015 470.594 124.961 468.057 132.15 468.057V462.057ZM109.778 471.588C103.745 477.922 100.95 486.837 100.95 497.857H106.95C106.95 487.81 109.488 480.592 114.122 475.726L109.778 471.588ZM100.95 497.857C100.95 508.863 103.671 517.814 109.528 524.272L113.972 520.241C109.429 515.233 106.95 507.917 106.95 497.857H100.95ZM109.578 524.326C115.499 530.543 122.961 533.657 131.75 533.657V527.657C124.539 527.657 118.668 525.171 113.922 520.188L109.578 524.326ZM260.889 465.457V468.457H263.889V465.457H260.889ZM241.489 465.457V462.457H238.489V465.457H241.489ZM241.489 553.257V556.257H244.489V553.257H241.489ZM213.089 553.257H210.089V556.257H213.089V553.257ZM213.089 465.457H216.089V462.457H213.089V465.457ZM200.489 465.457H197.489V468.457H200.489V465.457ZM200.489 442.457V439.457H197.489V442.457H200.489ZM213.089 442.457V445.457H216.089V442.457H213.089ZM224.689 406.857L222.776 404.546L222.776 404.546L224.689 406.857ZM259.689 397.857H262.689V394.933L259.766 394.858L259.689 397.857ZM259.689 421.457L259.63 424.456L262.689 424.516V421.457H259.689ZM245.489 424.857L243.482 422.627L245.489 424.857ZM241.489 442.457H238.489V445.457H241.489V442.457ZM260.889 442.457H263.889V439.457H260.889V442.457ZM260.889 462.457H241.489V468.457H260.889V462.457ZM238.489 465.457V553.257H244.489V465.457H238.489ZM241.489 550.257H213.089V556.257H241.489V550.257ZM216.089 553.257V465.457H210.089V553.257H216.089ZM213.089 462.457H200.489V468.457H213.089V462.457ZM203.489 465.457V442.457H197.489V465.457H203.489ZM200.489 445.457H213.089V439.457H200.489V445.457ZM216.089 442.457V436.857H210.089V442.457H216.089ZM216.089 436.857C216.089 423.815 219.78 414.814 226.602 409.168L222.776 404.546C214.132 411.7 210.089 422.699 210.089 436.857H216.089ZM226.602 409.168C233.539 403.427 244.353 400.464 259.612 400.856L259.766 394.858C243.825 394.449 231.306 397.487 222.776 404.546L226.602 409.168ZM256.689 397.857V421.457H262.689V397.857H256.689ZM259.748 418.457C252.789 418.321 247.043 419.422 243.482 422.627L247.496 427.087C249.269 425.491 252.99 424.326 259.63 424.456L259.748 418.457ZM243.482 422.627C239.845 425.9 238.489 431.337 238.489 437.857H244.489C244.489 431.843 245.8 428.613 247.496 427.087L243.482 422.627ZM238.489 437.857V442.457H244.489V437.857H238.489ZM241.489 445.457H260.889V439.457H241.489V445.457ZM257.889 442.457V465.457H263.889V442.457H257.889ZM329.834 465.457V468.457H332.834V465.457H329.834ZM310.434 465.457V462.457H307.434V465.457H310.434ZM310.434 553.257V556.257H313.434V553.257H310.434ZM282.034 553.257H279.034V556.257H282.034V553.257ZM282.034 465.457H285.034V462.457H282.034V465.457ZM269.434 465.457H266.434V468.457H269.434V465.457ZM269.434 442.457V439.457H266.434V442.457H269.434ZM282.034 442.457V445.457H285.034V442.457H282.034ZM293.634 406.857L291.722 404.546L291.722 404.546L293.634 406.857ZM328.634 397.857H331.634V394.933L328.711 394.858L328.634 397.857ZM328.634 421.457L328.576 424.456L331.634 424.516V421.457H328.634ZM314.434 424.857L312.427 422.627L314.434 424.857ZM310.434 442.457H307.434V445.457H310.434V442.457ZM329.834 442.457H332.834V439.457H329.834V442.457ZM329.834 462.457H310.434V468.457H329.834V462.457ZM307.434 465.457V553.257H313.434V465.457H307.434ZM310.434 550.257H282.034V556.257H310.434V550.257ZM285.034 553.257V465.457H279.034V553.257H285.034ZM282.034 462.457H269.434V468.457H282.034V462.457ZM272.434 465.457V442.457H266.434V465.457H272.434ZM269.434 445.457H282.034V439.457H269.434V445.457ZM285.034 442.457V436.857H279.034V442.457H285.034ZM285.034 436.857C285.034 423.815 288.725 414.814 295.547 409.168L291.722 404.546C283.077 411.7 279.034 422.699 279.034 436.857H285.034ZM295.547 409.168C302.484 403.427 313.298 400.464 328.557 400.856L328.711 394.858C312.77 394.449 300.251 397.487 291.722 404.546L295.547 409.168ZM325.634 397.857V421.457H331.634V397.857H325.634ZM328.693 418.457C321.734 418.321 315.988 419.422 312.427 422.627L316.441 427.087C318.214 425.491 321.935 424.326 328.576 424.456L328.693 418.457ZM312.427 422.627C308.79 425.9 307.434 431.337 307.434 437.857H313.434C313.434 431.843 314.745 428.613 316.441 427.087L312.427 422.627ZM307.434 437.857V442.457H313.434V437.857H307.434ZM310.434 445.457H329.834V439.457H310.434V445.457ZM326.834 442.457V465.457H332.834V442.457H326.834ZM450.18 506.257V509.257H452.721L453.139 506.75L450.18 506.257ZM369.18 506.257V503.257H365.919L366.19 506.506L369.18 506.257ZM377.58 525.057L375.55 527.266L375.55 527.266L377.58 525.057ZM417.98 518.457V515.457H416.113L415.288 517.131L417.98 518.457ZM448.18 518.457L451.053 519.319L452.212 515.457H448.18V518.457ZM429.78 544.857L431.58 547.257L431.591 547.248L431.602 547.24L429.78 544.857ZM367.58 548.057L366.091 550.661L366.116 550.675L366.14 550.689L367.58 548.057ZM347.78 527.857L345.138 529.279L345.147 529.295L345.155 529.31L347.78 527.857ZM347.78 467.657L345.138 466.234L345.138 466.234L347.78 467.657ZM367.38 447.657L368.837 450.279L368.837 450.279L367.38 447.657ZM424.58 447.457L423.137 450.087L423.146 450.092L423.155 450.097L424.58 447.457ZM443.98 466.857L441.34 468.282L441.353 468.307L441.367 468.331L443.98 466.857ZM421.98 487.457V490.457H425.036L424.979 487.401L421.98 487.457ZM414.18 470.257L412.213 472.522L412.23 472.537L412.247 472.551L414.18 470.257ZM377.98 470.057L379.969 472.302L379.973 472.299L377.98 470.057ZM369.38 487.457L366.41 487.032L365.921 490.457H369.38V487.457ZM447.98 495.457C447.98 499.328 447.721 502.759 447.221 505.764L453.139 506.75C453.705 503.355 453.98 499.585 453.98 495.457H447.98ZM450.18 503.257H369.18V509.257H450.18V503.257ZM366.19 506.506C366.906 515.099 369.956 522.125 375.55 527.266L379.61 522.848C375.337 518.922 372.787 513.414 372.169 506.008L366.19 506.506ZM375.55 527.266C381.08 532.348 387.889 534.857 395.78 534.857V528.857C389.27 528.857 383.946 526.832 379.61 522.848L375.55 527.266ZM395.78 534.857C401.415 534.857 406.425 533.643 410.68 531.075C414.943 528.502 418.257 524.684 420.671 519.782L415.288 517.131C413.303 521.163 410.717 524.045 407.579 525.938C404.434 527.837 400.545 528.857 395.78 528.857V534.857ZM417.98 521.457H448.18V515.457H417.98V521.457ZM445.306 517.595C442.293 527.64 436.536 535.914 427.957 542.474L431.602 547.24C441.157 539.933 447.667 530.606 451.053 519.319L445.306 517.595ZM427.98 542.457C419.515 548.806 409.042 552.057 396.38 552.057V558.057C410.118 558.057 421.911 554.508 431.58 547.257L427.98 542.457ZM396.38 552.057C386.166 552.057 377.069 549.827 369.019 545.425L366.14 550.689C375.157 555.62 385.26 558.057 396.38 558.057V552.057ZM369.068 545.452C361.157 540.931 354.945 534.602 350.404 526.403L345.155 529.31C350.215 538.445 357.202 545.582 366.091 550.661L369.068 545.452ZM350.421 526.434C346.023 518.267 343.78 508.769 343.78 497.857H337.78C337.78 509.611 340.203 520.113 345.138 529.279L350.421 526.434ZM343.78 497.857C343.78 486.804 346.026 477.241 350.421 469.079L345.138 466.234C340.2 475.405 337.78 485.976 337.78 497.857H343.78ZM350.421 469.079C354.823 460.904 360.951 454.66 368.837 450.279L365.923 445.034C357.009 449.987 350.07 457.076 345.138 466.234L350.421 469.079ZM368.837 450.279C376.733 445.893 385.885 443.657 396.38 443.657V437.657C385.008 437.657 374.827 440.088 365.923 445.034L368.837 450.279ZM396.38 443.657C406.469 443.657 415.363 445.824 423.137 450.087L426.022 444.826C417.263 440.023 407.357 437.657 396.38 437.657V443.657ZM423.155 450.097C431.04 454.352 437.084 460.396 441.34 468.282L446.62 465.432C441.809 456.517 434.919 449.628 426.004 444.817L423.155 450.097ZM441.367 468.331C445.747 476.089 447.98 485.101 447.98 495.457H453.98C453.98 484.212 451.546 474.158 446.592 465.382L441.367 468.331ZM424.979 487.401C424.831 479.421 421.903 472.839 416.112 467.962L412.247 472.551C416.59 476.208 418.861 481.093 418.98 487.512L424.979 487.401ZM416.147 467.992C410.482 463.072 403.564 460.657 395.58 460.657V466.657C402.263 466.657 407.744 468.641 412.213 472.522L416.147 467.992ZM395.58 460.657C387.975 460.657 381.381 463.019 375.987 467.814L379.973 472.299C384.178 468.561 389.318 466.657 395.58 466.657V460.657ZM375.991 467.811C370.685 472.51 367.555 479.016 366.41 487.032L372.35 487.881C373.338 480.964 375.941 475.87 379.969 472.302L375.991 467.811ZM369.38 490.457H421.98V484.457H369.38V490.457Z" fill="#527853" mask="url(#path-3-outside-2_11_51)"/>
<mask id="path-5-outside-3_11_51" maskUnits="userSpaceOnUse" x="734.113" y="2" width="626" height="164" fill="black">
<rect fill="white" x="734.113" y="2" width="626" height="164"/>
<path d="M847.913 103.2C847.913 107.2 847.646 110.8 847.113 114H766.113C766.78 122 769.58 128.267 774.513 132.8C779.446 137.333 785.513 139.6 792.713 139.6C803.113 139.6 810.513 135.133 814.913 126.2H845.113C841.913 136.867 835.78 145.667 826.713 152.6C817.646 159.4 806.513 162.8 793.313 162.8C782.646 162.8 773.046 160.467 764.513 155.8C756.113 151 749.513 144.267 744.713 135.6C740.046 126.933 737.713 116.933 737.713 105.6C737.713 94.1333 740.046 84.0667 744.713 75.4C749.38 66.7333 755.913 60.0667 764.313 55.4C772.713 50.7333 782.38 48.4 793.313 48.4C803.846 48.4 813.246 50.6667 821.513 55.2C829.913 59.7333 836.38 66.2 840.913 74.6C845.58 82.8667 847.913 92.4 847.913 103.2ZM818.913 95.2C818.78 88 816.18 82.2667 811.113 78C806.046 73.6 799.846 71.4 792.513 71.4C785.58 71.4 779.713 73.5333 774.913 77.8C770.246 81.9333 767.38 87.7333 766.313 95.2H818.913ZM861.15 105.6C861.15 94.1333 863.484 84.1333 868.15 75.6C872.817 66.9333 879.284 60.2667 887.55 55.6C895.817 50.8 905.284 48.4 915.95 48.4C929.684 48.4 941.017 51.8667 949.95 58.8C959.017 65.6 965.084 75.2 968.15 87.6H937.95C936.35 82.8 933.617 79.0667 929.75 76.4C926.017 73.6 921.35 72.2 915.75 72.2C907.75 72.2 901.417 75.1333 896.75 81C892.084 86.7333 889.75 94.9333 889.75 105.6C889.75 116.133 892.084 124.333 896.75 130.2C901.417 135.933 907.75 138.8 915.75 138.8C927.084 138.8 934.484 133.733 937.95 123.6H968.15C965.084 135.6 959.017 145.133 949.95 152.2C940.884 159.267 929.55 162.8 915.95 162.8C905.284 162.8 895.817 160.467 887.55 155.8C879.284 151 872.817 144.333 868.15 135.8C863.484 127.133 861.15 117.067 861.15 105.6ZM1037.86 162.8C1027.2 162.8 1017.6 160.467 1009.06 155.8C1000.53 151 993.796 144.267 988.863 135.6C984.063 126.933 981.663 116.933 981.663 105.6C981.663 94.2667 984.13 84.2667 989.063 75.6C994.13 66.9333 1001 60.2667 1009.66 55.6C1018.33 50.8 1028 48.4 1038.66 48.4C1049.33 48.4 1059 50.8 1067.66 55.6C1076.33 60.2667 1083.13 66.9333 1088.06 75.6C1093.13 84.2667 1095.66 94.2667 1095.66 105.6C1095.66 116.933 1093.06 126.933 1087.86 135.6C1082.8 144.267 1075.86 151 1067.06 155.8C1058.4 160.467 1048.66 162.8 1037.86 162.8ZM1037.86 138.4C1042.93 138.4 1047.66 137.2 1052.06 134.8C1056.6 132.267 1060.2 128.533 1062.86 123.6C1065.53 118.667 1066.86 112.667 1066.86 105.6C1066.86 95.0667 1064.06 87 1058.46 81.4C1053 75.6667 1046.26 72.8 1038.26 72.8C1030.26 72.8 1023.53 75.6667 1018.06 81.4C1012.73 87 1010.06 95.0667 1010.06 105.6C1010.06 116.133 1012.66 124.267 1017.86 130C1023.2 135.6 1029.86 138.4 1037.86 138.4ZM1167 73.2H1147.6V161H1119.2V73.2H1106.6V50.2H1119.2V44.6C1119.2 31 1123.07 21 1130.8 14.6C1138.54 8.19999 1150.2 5.2 1165.8 5.6V29.2C1159 29.0667 1154.27 30.2 1151.6 32.6C1148.94 35 1147.6 39.3333 1147.6 45.6V50.2H1167V73.2ZM1235.95 73.2H1216.55V161H1188.15V73.2H1175.55V50.2H1188.15V44.6C1188.15 31 1192.01 21 1199.75 14.6C1207.48 8.19999 1219.15 5.2 1234.75 5.6V29.2C1227.95 29.0667 1223.21 30.2 1220.55 32.6C1217.88 35 1216.55 39.3333 1216.55 45.6V50.2H1235.95V73.2ZM1357.09 103.2C1357.09 107.2 1356.83 110.8 1356.29 114H1275.29C1275.96 122 1278.76 128.267 1283.69 132.8C1288.63 137.333 1294.69 139.6 1301.89 139.6C1312.29 139.6 1319.69 135.133 1324.09 126.2H1354.29C1351.09 136.867 1344.96 145.667 1335.89 152.6C1326.83 159.4 1315.69 162.8 1302.49 162.8C1291.83 162.8 1282.23 160.467 1273.69 155.8C1265.29 151 1258.69 144.267 1253.89 135.6C1249.23 126.933 1246.89 116.933 1246.89 105.6C1246.89 94.1333 1249.23 84.0667 1253.89 75.4C1258.56 66.7333 1265.09 60.0667 1273.49 55.4C1281.89 50.7333 1291.56 48.4 1302.49 48.4C1313.03 48.4 1322.43 50.6667 1330.69 55.2C1339.09 59.7333 1345.56 66.2 1350.09 74.6C1354.76 82.8667 1357.09 92.4 1357.09 103.2ZM1328.09 95.2C1327.96 88 1325.36 82.2667 1320.29 78C1315.23 73.6 1309.03 71.4 1301.69 71.4C1294.76 71.4 1288.89 73.5333 1284.09 77.8C1279.43 81.9333 1276.56 87.7333 1275.49 95.2H1328.09Z"/>
</mask>
<path d="M847.113 114V117H849.654L850.072 114.493L847.113 114ZM766.113 114V111H762.853L763.123 114.249L766.113 114ZM774.513 132.8L772.483 135.009L772.483 135.009L774.513 132.8ZM814.913 126.2V123.2H813.046L812.222 124.874L814.913 126.2ZM845.113 126.2L847.986 127.062L849.145 123.2H845.113V126.2ZM826.713 152.6L828.513 155L828.524 154.992L828.535 154.983L826.713 152.6ZM764.513 155.8L763.025 158.405L763.049 158.419L763.073 158.432L764.513 155.8ZM744.713 135.6L742.072 137.022L742.08 137.038L742.089 137.053L744.713 135.6ZM744.713 75.4L742.072 73.9777L742.072 73.9777L744.713 75.4ZM764.313 55.4L765.77 58.0225L765.77 58.0225L764.313 55.4ZM821.513 55.2L820.07 57.8304L820.079 57.8353L820.088 57.8401L821.513 55.2ZM840.913 74.6L838.273 76.0248L838.286 76.0499L838.3 76.0748L840.913 74.6ZM818.913 95.2V98.2H821.969L821.912 95.1444L818.913 95.2ZM811.113 78L809.146 80.2651L809.163 80.28L809.181 80.2947L811.113 78ZM774.913 77.8L776.902 80.0458L776.906 80.0422L774.913 77.8ZM766.313 95.2L763.343 94.7757L762.854 98.2H766.313V95.2ZM844.913 103.2C844.913 107.071 844.655 110.502 844.154 113.507L850.072 114.493C850.638 111.098 850.913 107.329 850.913 103.2H844.913ZM847.113 111H766.113V117H847.113V111ZM763.123 114.249C763.839 122.842 766.889 129.868 772.483 135.009L776.543 130.591C772.27 126.665 769.72 121.158 769.103 113.751L763.123 114.249ZM772.483 135.009C778.013 140.091 784.822 142.6 792.713 142.6V136.6C786.203 136.6 780.879 134.576 776.543 130.591L772.483 135.009ZM792.713 142.6C798.348 142.6 803.358 141.387 807.613 138.818C811.876 136.245 815.19 132.427 817.604 127.526L812.222 124.874C810.236 128.906 807.65 131.788 804.513 133.682C801.367 135.58 797.478 136.6 792.713 136.6V142.6ZM814.913 129.2H845.113V123.2H814.913V129.2ZM842.239 125.338C839.226 135.384 833.469 143.657 824.891 150.217L828.535 154.983C838.09 147.676 844.6 138.35 847.986 127.062L842.239 125.338ZM824.913 150.2C816.448 156.549 805.975 159.8 793.313 159.8V165.8C807.051 165.8 818.845 162.251 828.513 155L824.913 150.2ZM793.313 159.8C783.1 159.8 774.003 157.57 765.952 153.168L763.073 158.432C772.09 163.363 782.193 165.8 793.313 165.8V159.8ZM766.001 153.195C758.09 148.675 751.878 142.345 747.337 134.146L742.089 137.053C747.148 146.189 754.136 153.325 763.025 158.405L766.001 153.195ZM747.354 134.178C742.957 126.01 740.713 116.513 740.713 105.6H734.713C734.713 117.354 737.136 127.856 742.072 137.022L747.354 134.178ZM740.713 105.6C740.713 94.5476 742.959 84.9847 747.354 76.8223L742.072 73.9777C737.133 83.1486 734.713 93.7191 734.713 105.6H740.713ZM747.354 76.8223C751.756 68.6477 757.884 62.4035 765.77 58.0225L762.856 52.7775C753.942 57.7299 747.003 64.819 742.072 73.9777L747.354 76.8223ZM765.77 58.0225C773.666 53.6358 782.818 51.4 793.313 51.4V45.4C781.941 45.4 771.76 47.8308 762.856 52.7775L765.77 58.0225ZM793.313 51.4C803.402 51.4 812.296 53.5669 820.07 57.8304L822.955 52.5696C814.197 47.7664 804.29 45.4 793.313 45.4V51.4ZM820.088 57.8401C827.973 62.0955 834.017 68.1397 838.273 76.0248L843.553 73.1752C838.742 64.2603 831.853 57.3712 822.938 52.5599L820.088 57.8401ZM838.3 76.0748C842.68 83.8325 844.913 92.8445 844.913 103.2H850.913C850.913 91.9555 848.479 81.9009 843.525 73.1252L838.3 76.0748ZM821.912 95.1444C821.765 87.1641 818.836 80.582 813.045 75.7053L809.181 80.2947C813.523 83.9514 815.795 88.8359 815.913 95.2555L821.912 95.1444ZM813.08 75.7349C807.415 70.8156 800.497 68.4 792.513 68.4V74.4C799.196 74.4 804.677 76.3844 809.146 80.2651L813.08 75.7349ZM792.513 68.4C784.908 68.4 778.315 70.7624 772.92 75.5578L776.906 80.0422C781.111 76.3043 786.251 74.4 792.513 74.4V68.4ZM772.924 75.5542C767.619 80.2531 764.488 86.7589 763.343 94.7757L769.283 95.6243C770.271 88.7078 772.874 83.6136 776.902 80.0458L772.924 75.5542ZM766.313 98.2H818.913V92.2H766.313V98.2ZM868.15 75.6L870.783 77.0394L870.787 77.0309L870.792 77.0223L868.15 75.6ZM887.55 55.6L889.025 58.2125L889.041 58.2035L889.057 58.1944L887.55 55.6ZM949.95 58.8L948.111 61.17L948.131 61.1851L948.15 61.2L949.95 58.8ZM968.15 87.6V90.6H971.983L971.063 86.8798L968.15 87.6ZM937.95 87.6L935.104 88.5487L935.788 90.6H937.95V87.6ZM929.75 76.4L927.95 78.8L927.998 78.8358L928.047 78.8696L929.75 76.4ZM896.75 81L899.077 82.8938L899.088 82.8808L899.098 82.8676L896.75 81ZM896.75 130.2L894.403 132.068L894.413 132.081L894.424 132.094L896.75 130.2ZM937.95 123.6V120.6H935.806L935.112 122.629L937.95 123.6ZM968.15 123.6L971.057 124.343L972.013 120.6H968.15V123.6ZM949.95 152.2L951.795 154.566L951.795 154.566L949.95 152.2ZM887.55 155.8L886.044 158.394L886.06 158.404L886.076 158.412L887.55 155.8ZM868.15 135.8L865.509 137.222L865.514 137.231L865.518 137.239L868.15 135.8ZM864.15 105.6C864.15 94.5462 866.397 85.0585 870.783 77.0394L865.518 74.1606C860.57 83.2082 858.15 93.7205 858.15 105.6H864.15ZM870.792 77.0223C875.2 68.8352 881.271 62.5899 889.025 58.2125L886.076 52.9875C877.297 57.9434 870.434 65.0315 865.509 74.1777L870.792 77.0223ZM889.057 58.1944C896.815 53.6899 905.75 51.4 915.95 51.4V45.4C904.817 45.4 894.82 47.9101 886.044 53.0056L889.057 58.1944ZM915.95 51.4C929.165 51.4 939.809 54.7268 948.111 61.17L951.79 56.43C942.225 49.0065 930.203 45.4 915.95 45.4V51.4ZM948.15 61.2C956.594 67.5324 962.315 76.5012 965.238 88.3202L971.063 86.8798C967.852 73.8988 961.441 63.6676 951.75 56.4L948.15 61.2ZM968.15 84.6H937.95V90.6H968.15V84.6ZM940.796 86.6513C939.007 81.2844 935.898 76.9958 931.454 73.9304L928.047 78.8696C931.336 81.1375 933.693 84.3156 935.104 88.5487L940.796 86.6513ZM931.55 74C927.2 70.7374 921.866 69.2 915.75 69.2V75.2C920.835 75.2 924.834 76.4626 927.95 78.8L931.55 74ZM915.75 69.2C906.907 69.2 899.681 72.4967 894.403 79.1324L899.098 82.8676C903.153 77.77 908.594 75.2 915.75 75.2V69.2ZM894.424 79.1062C889.165 85.5672 886.75 94.5412 886.75 105.6H892.75C892.75 95.3254 895.003 87.8995 899.077 82.8938L894.424 79.1062ZM886.75 105.6C886.75 116.542 889.172 125.492 894.403 132.068L899.098 128.332C894.996 123.175 892.75 115.725 892.75 105.6H886.75ZM894.424 132.094C899.712 138.59 906.933 141.8 915.75 141.8V135.8C908.568 135.8 903.123 133.276 899.077 128.306L894.424 132.094ZM915.75 141.8C921.862 141.8 927.179 140.431 931.495 137.475C935.826 134.51 938.888 130.127 940.789 124.571L935.112 122.629C933.546 127.206 931.175 130.423 928.106 132.525C925.022 134.636 920.972 135.8 915.75 135.8V141.8ZM937.95 126.6H968.15V120.6H937.95V126.6ZM965.244 122.857C962.328 134.266 956.607 143.208 948.106 149.834L951.795 154.566C961.427 147.059 967.839 136.934 971.057 124.343L965.244 122.857ZM948.106 149.834C939.659 156.418 929.009 159.8 915.95 159.8V165.8C930.092 165.8 942.109 162.115 951.795 154.566L948.106 149.834ZM915.95 159.8C905.735 159.8 896.788 157.57 889.025 153.188L886.076 158.412C894.846 163.363 904.832 165.8 915.95 165.8V159.8ZM889.057 153.206C881.272 148.686 875.191 142.422 870.783 134.361L865.518 137.239C870.443 146.244 877.295 153.314 886.044 158.394L889.057 153.206ZM870.792 134.378C866.397 126.215 864.15 116.652 864.15 105.6H858.15C858.15 117.481 860.571 128.051 865.509 137.222L870.792 134.378ZM1009.06 155.8L1007.59 158.415L1007.61 158.424L1007.62 158.432L1009.06 155.8ZM988.863 135.6L986.239 137.053L986.247 137.069L986.256 137.084L988.863 135.6ZM989.063 75.6L986.473 74.0859L986.464 74.1009L986.456 74.1159L989.063 75.6ZM1009.66 55.6L1011.09 58.2414L1011.1 58.233L1011.12 58.2244L1009.66 55.6ZM1067.66 55.6L1066.21 58.2244L1066.22 58.233L1066.24 58.2414L1067.66 55.6ZM1088.06 75.6L1085.46 77.0841L1085.46 77.0991L1085.47 77.1141L1088.06 75.6ZM1087.86 135.6L1085.29 134.057L1085.28 134.071L1085.27 134.086L1087.86 135.6ZM1067.06 155.8L1068.49 158.441L1068.49 158.438L1068.5 158.434L1067.06 155.8ZM1052.06 134.8L1053.5 137.434L1053.51 137.426L1053.53 137.419L1052.06 134.8ZM1062.86 123.6L1065.5 125.027L1065.5 125.027L1062.86 123.6ZM1058.46 81.4L1056.29 83.4702L1056.32 83.4961L1056.34 83.5213L1058.46 81.4ZM1018.06 81.4L1015.89 79.3298L1015.89 79.331L1018.06 81.4ZM1017.86 130L1015.64 132.015L1015.67 132.043L1015.69 132.069L1017.86 130ZM1037.86 159.8C1027.65 159.8 1018.55 157.57 1010.5 153.168L1007.62 158.432C1016.64 163.363 1026.74 165.8 1037.86 165.8V159.8ZM1010.53 153.185C1002.48 148.657 996.139 142.319 991.47 134.116L986.256 137.084C991.453 146.215 998.575 153.343 1007.59 158.415L1010.53 153.185ZM991.487 134.146C986.967 125.985 984.663 116.499 984.663 105.6H978.663C978.663 117.368 981.159 127.881 986.239 137.053L991.487 134.146ZM984.663 105.6C984.663 94.7149 987.028 85.2397 991.67 77.0841L986.456 74.1159C981.231 83.2937 978.663 93.8184 978.663 105.6H984.663ZM991.653 77.1141C996.447 68.9134 1002.91 62.6413 1011.09 58.2414L1008.24 52.9586C999.078 57.892 991.812 64.9533 986.473 74.0859L991.653 77.1141ZM1011.12 58.2244C1019.3 53.6895 1028.46 51.4 1038.66 51.4V45.4C1027.53 45.4 1017.35 47.9105 1008.21 52.9756L1011.12 58.2244ZM1038.66 51.4C1048.86 51.4 1058.02 53.6895 1066.21 58.2244L1069.12 52.9756C1059.97 47.9105 1049.8 45.4 1038.66 45.4V51.4ZM1066.24 58.2414C1074.4 62.6375 1080.8 68.9 1085.46 77.0841L1090.67 74.1159C1085.46 64.9667 1078.25 57.8959 1069.09 52.9586L1066.24 58.2414ZM1085.47 77.1141C1090.24 85.2645 1092.66 94.7288 1092.66 105.6H1098.66C1098.66 93.8046 1096.02 83.2689 1090.65 74.0859L1085.47 77.1141ZM1092.66 105.6C1092.66 116.457 1090.18 125.911 1085.29 134.057L1090.44 137.143C1095.95 127.956 1098.66 117.409 1098.66 105.6H1092.66ZM1085.27 134.086C1080.48 142.282 1073.95 148.628 1065.63 153.166L1068.5 158.434C1077.78 153.372 1085.11 146.251 1090.45 137.114L1085.27 134.086ZM1065.64 153.159C1057.45 157.568 1048.22 159.8 1037.86 159.8V165.8C1049.11 165.8 1059.34 163.366 1068.49 158.441L1065.64 153.159ZM1037.86 141.4C1043.43 141.4 1048.65 140.077 1053.5 137.434L1050.63 132.166C1046.67 134.323 1042.43 135.4 1037.86 135.4V141.4ZM1053.53 137.419C1058.6 134.585 1062.59 130.419 1065.5 125.027L1060.22 122.173C1057.81 126.648 1054.6 129.948 1050.6 132.181L1053.53 137.419ZM1065.5 125.027C1068.46 119.555 1069.86 113.038 1069.86 105.6H1063.86C1063.86 112.296 1062.6 117.778 1060.22 122.173L1065.5 125.027ZM1069.86 105.6C1069.86 94.5425 1066.91 85.6079 1060.58 79.2787L1056.34 83.5213C1061.21 88.3921 1063.86 95.5908 1063.86 105.6H1069.86ZM1060.63 79.3298C1054.6 72.9961 1047.07 69.8 1038.26 69.8V75.8C1045.45 75.8 1051.4 78.3373 1056.29 83.4702L1060.63 79.3298ZM1038.26 69.8C1029.45 69.8 1021.93 72.9961 1015.89 79.3298L1020.23 83.4702C1025.13 78.3373 1031.07 75.8 1038.26 75.8V69.8ZM1015.89 79.331C1009.86 85.6652 1007.06 94.5802 1007.06 105.6H1013.06C1013.06 95.5532 1015.6 88.3348 1020.24 83.469L1015.89 79.331ZM1007.06 105.6C1007.06 116.607 1009.78 125.557 1015.64 132.015L1020.09 127.985C1015.54 122.976 1013.06 115.66 1013.06 105.6H1007.06ZM1015.69 132.069C1021.61 138.286 1029.07 141.4 1037.86 141.4V135.4C1030.65 135.4 1024.78 132.914 1020.04 127.931L1015.69 132.069ZM1167 73.2V76.2H1170V73.2H1167ZM1147.6 73.2V70.2H1144.6V73.2H1147.6ZM1147.6 161V164H1150.6V161H1147.6ZM1119.2 161H1116.2V164H1119.2V161ZM1119.2 73.2H1122.2V70.2H1119.2V73.2ZM1106.6 73.2H1103.6V76.2H1106.6V73.2ZM1106.6 50.2V47.2H1103.6V50.2H1106.6ZM1119.2 50.2V53.2H1122.2V50.2H1119.2ZM1130.8 14.6L1128.89 12.2888L1128.89 12.2888L1130.8 14.6ZM1165.8 5.6H1168.8V2.67594L1165.88 2.60098L1165.8 5.6ZM1165.8 29.2L1165.74 32.1994L1168.8 32.2594V29.2H1165.8ZM1151.6 32.6L1149.6 30.3701L1151.6 32.6ZM1147.6 50.2H1144.6V53.2H1147.6V50.2ZM1167 50.2H1170V47.2H1167V50.2ZM1167 70.2H1147.6V76.2H1167V70.2ZM1144.6 73.2V161H1150.6V73.2H1144.6ZM1147.6 158H1119.2V164H1147.6V158ZM1122.2 161V73.2H1116.2V161H1122.2ZM1119.2 70.2H1106.6V76.2H1119.2V70.2ZM1109.6 73.2V50.2H1103.6V73.2H1109.6ZM1106.6 53.2H1119.2V47.2H1106.6V53.2ZM1122.2 50.2V44.6H1116.2V50.2H1122.2ZM1122.2 44.6C1122.2 31.5578 1125.89 22.557 1132.71 16.9112L1128.89 12.2888C1120.24 19.443 1116.2 30.4422 1116.2 44.6H1122.2ZM1132.71 16.9112C1139.65 11.1701 1150.47 8.20775 1165.73 8.59901L1165.88 2.60098C1149.94 2.19224 1137.42 5.22987 1128.89 12.2888L1132.71 16.9112ZM1162.8 5.6V29.2H1168.8V5.6H1162.8ZM1165.86 26.2006C1158.9 26.0641 1153.16 27.1656 1149.6 30.3701L1153.61 34.8299C1155.38 33.2344 1159.1 32.0692 1165.74 32.1994L1165.86 26.2006ZM1149.6 30.3701C1145.96 33.6435 1144.6 39.0805 1144.6 45.6H1150.6C1150.6 39.5862 1151.91 36.3565 1153.61 34.8299L1149.6 30.3701ZM1144.6 45.6V50.2H1150.6V45.6H1144.6ZM1147.6 53.2H1167V47.2H1147.6V53.2ZM1164 50.2V73.2H1170V50.2H1164ZM1235.95 73.2V76.2H1238.95V73.2H1235.95ZM1216.55 73.2V70.2H1213.55V73.2H1216.55ZM1216.55 161V164H1219.55V161H1216.55ZM1188.15 161H1185.15V164H1188.15V161ZM1188.15 73.2H1191.15V70.2H1188.15V73.2ZM1175.55 73.2H1172.55V76.2H1175.55V73.2ZM1175.55 50.2V47.2H1172.55V50.2H1175.55ZM1188.15 50.2V53.2H1191.15V50.2H1188.15ZM1199.75 14.6L1197.83 12.2888L1197.83 12.2888L1199.75 14.6ZM1234.75 5.6H1237.75V2.67594L1234.82 2.60098L1234.75 5.6ZM1234.75 29.2L1234.69 32.1994L1237.75 32.2594V29.2H1234.75ZM1220.55 32.6L1218.54 30.3701L1220.55 32.6ZM1216.55 50.2H1213.55V53.2H1216.55V50.2ZM1235.95 50.2H1238.95V47.2H1235.95V50.2ZM1235.95 70.2H1216.55V76.2H1235.95V70.2ZM1213.55 73.2V161H1219.55V73.2H1213.55ZM1216.55 158H1188.15V164H1216.55V158ZM1191.15 161V73.2H1185.15V161H1191.15ZM1188.15 70.2H1175.55V76.2H1188.15V70.2ZM1178.55 73.2V50.2H1172.55V73.2H1178.55ZM1175.55 53.2H1188.15V47.2H1175.55V53.2ZM1191.15 50.2V44.6H1185.15V50.2H1191.15ZM1191.15 44.6C1191.15 31.5578 1194.84 22.557 1201.66 16.9112L1197.83 12.2888C1189.19 19.443 1185.15 30.4422 1185.15 44.6H1191.15ZM1201.66 16.9112C1208.6 11.1701 1219.41 8.20775 1234.67 8.59901L1234.82 2.60098C1218.88 2.19224 1206.36 5.22987 1197.83 12.2888L1201.66 16.9112ZM1231.75 5.6V29.2H1237.75V5.6H1231.75ZM1234.81 26.2006C1227.85 26.0641 1222.1 27.1656 1218.54 30.3701L1222.55 34.8299C1224.33 33.2344 1228.05 32.0692 1234.69 32.1994L1234.81 26.2006ZM1218.54 30.3701C1214.9 33.6435 1213.55 39.0805 1213.55 45.6H1219.55C1219.55 39.5862 1220.86 36.3565 1222.55 34.8299L1218.54 30.3701ZM1213.55 45.6V50.2H1219.55V45.6H1213.55ZM1216.55 53.2H1235.95V47.2H1216.55V53.2ZM1232.95 50.2V73.2H1238.95V50.2H1232.95ZM1356.29 114V117H1358.83L1359.25 114.493L1356.29 114ZM1275.29 114V111H1272.03L1272.3 114.249L1275.29 114ZM1283.69 132.8L1281.66 135.009L1281.66 135.009L1283.69 132.8ZM1324.09 126.2V123.2H1322.23L1321.4 124.874L1324.09 126.2ZM1354.29 126.2L1357.17 127.062L1358.32 123.2H1354.29V126.2ZM1335.89 152.6L1337.69 155L1337.7 154.992L1337.71 154.983L1335.89 152.6ZM1273.69 155.8L1272.2 158.405L1272.23 158.419L1272.25 158.432L1273.69 155.8ZM1253.89 135.6L1251.25 137.022L1251.26 137.038L1251.27 137.053L1253.89 135.6ZM1253.89 75.4L1251.25 73.9777L1251.25 73.9777L1253.89 75.4ZM1273.49 55.4L1274.95 58.0225L1274.95 58.0225L1273.49 55.4ZM1330.69 55.2L1329.25 57.8304L1329.26 57.8353L1329.27 57.8401L1330.69 55.2ZM1350.09 74.6L1347.45 76.0248L1347.47 76.0499L1347.48 76.0748L1350.09 74.6ZM1328.09 95.2V98.2H1331.15L1331.09 95.1444L1328.09 95.2ZM1320.29 78L1318.33 80.2651L1318.34 80.28L1318.36 80.2947L1320.29 78ZM1284.09 77.8L1286.08 80.0458L1286.09 80.0422L1284.09 77.8ZM1275.49 95.2L1272.52 94.7757L1272.03 98.2H1275.49V95.2ZM1354.09 103.2C1354.09 107.071 1353.83 110.502 1353.33 113.507L1359.25 114.493C1359.82 111.098 1360.09 107.329 1360.09 103.2H1354.09ZM1356.29 111H1275.29V117H1356.29V111ZM1272.3 114.249C1273.02 122.842 1276.07 129.868 1281.66 135.009L1285.72 130.591C1281.45 126.665 1278.9 121.158 1278.28 113.751L1272.3 114.249ZM1281.66 135.009C1287.19 140.091 1294 142.6 1301.89 142.6V136.6C1295.38 136.6 1290.06 134.576 1285.72 130.591L1281.66 135.009ZM1301.89 142.6C1307.53 142.6 1312.54 141.387 1316.79 138.818C1321.06 136.245 1324.37 132.427 1326.78 127.526L1321.4 124.874C1319.42 128.906 1316.83 131.788 1313.69 133.682C1310.55 135.58 1306.66 136.6 1301.89 136.6V142.6ZM1324.09 129.2H1354.29V123.2H1324.09V129.2ZM1351.42 125.338C1348.41 135.384 1342.65 143.657 1334.07 150.217L1337.71 154.983C1347.27 147.676 1353.78 138.35 1357.17 127.062L1351.42 125.338ZM1334.09 150.2C1325.63 156.549 1315.15 159.8 1302.49 159.8V165.8C1316.23 165.8 1328.02 162.251 1337.69 155L1334.09 150.2ZM1302.49 159.8C1292.28 159.8 1283.18 157.57 1275.13 153.168L1272.25 158.432C1281.27 163.363 1291.37 165.8 1302.49 165.8V159.8ZM1275.18 153.195C1267.27 148.675 1261.06 142.345 1256.52 134.146L1251.27 137.053C1256.33 146.189 1263.32 153.325 1272.2 158.405L1275.18 153.195ZM1256.53 134.178C1252.14 126.01 1249.89 116.513 1249.89 105.6H1243.89C1243.89 117.354 1246.32 127.856 1251.25 137.022L1256.53 134.178ZM1249.89 105.6C1249.89 94.5476 1252.14 84.9847 1256.53 76.8223L1251.25 73.9777C1246.31 83.1486 1243.89 93.7191 1243.89 105.6H1249.89ZM1256.53 76.8223C1260.94 68.6477 1267.06 62.4035 1274.95 58.0225L1272.04 52.7775C1263.12 57.7299 1256.18 64.819 1251.25 73.9777L1256.53 76.8223ZM1274.95 58.0225C1282.85 53.6358 1292 51.4 1302.49 51.4V45.4C1291.12 45.4 1280.94 47.8308 1272.04 52.7775L1274.95 58.0225ZM1302.49 51.4C1312.58 51.4 1321.48 53.5669 1329.25 57.8304L1332.14 52.5696C1323.38 47.7664 1313.47 45.4 1302.49 45.4V51.4ZM1329.27 57.8401C1337.15 62.0955 1343.2 68.1397 1347.45 76.0248L1352.73 73.1752C1347.92 64.2603 1341.03 57.3712 1332.12 52.5599L1329.27 57.8401ZM1347.48 76.0748C1351.86 83.8325 1354.09 92.8445 1354.09 103.2H1360.09C1360.09 91.9555 1357.66 81.9009 1352.71 73.1252L1347.48 76.0748ZM1331.09 95.1444C1330.94 87.1641 1328.02 80.582 1322.23 75.7053L1318.36 80.2947C1322.7 83.9514 1324.97 88.8359 1325.09 95.2555L1331.09 95.1444ZM1322.26 75.7349C1316.6 70.8156 1309.68 68.4 1301.69 68.4V74.4C1308.38 74.4 1313.86 76.3844 1318.33 80.2651L1322.26 75.7349ZM1301.69 68.4C1294.09 68.4 1287.49 70.7624 1282.1 75.5578L1286.09 80.0422C1290.29 76.3043 1295.43 74.4 1301.69 74.4V68.4ZM1282.1 75.5542C1276.8 80.2531 1273.67 86.7589 1272.52 94.7757L1278.46 95.6243C1279.45 88.7078 1282.05 83.6136 1286.08 80.0458L1282.1 75.5542ZM1275.49 98.2H1328.09V92.2H1275.49V98.2Z" fill="#F7B787" mask="url(#path-5-outside-3_11_51)"/>
<mask id="path-7-outside-4_11_51" maskUnits="userSpaceOnUse" x="697.502" y="394.257" width="626" height="164" fill="black">
<rect fill="white" x="697.502" y="394.257" width="626" height="164"/>
<path d="M811.302 495.457C811.302 499.457 811.036 503.057 810.502 506.257H729.502C730.169 514.257 732.969 520.523 737.902 525.057C742.836 529.59 748.902 531.857 756.102 531.857C766.502 531.857 773.902 527.39 778.302 518.457H808.502C805.302 529.123 799.169 537.923 790.102 544.857C781.036 551.657 769.902 555.057 756.702 555.057C746.036 555.057 736.436 552.723 727.902 548.057C719.502 543.257 712.902 536.523 708.102 527.857C703.436 519.19 701.102 509.19 701.102 497.857C701.102 486.39 703.436 476.323 708.102 467.657C712.769 458.99 719.302 452.323 727.702 447.657C736.102 442.99 745.769 440.657 756.702 440.657C767.236 440.657 776.636 442.923 784.902 447.457C793.302 451.99 799.769 458.457 804.302 466.857C808.969 475.123 811.302 484.657 811.302 495.457ZM782.302 487.457C782.169 480.257 779.569 474.523 774.502 470.257C769.436 465.857 763.236 463.657 755.902 463.657C748.969 463.657 743.102 465.79 738.302 470.057C733.636 474.19 730.769 479.99 729.702 487.457H782.302ZM824.54 497.857C824.54 486.39 826.873 476.39 831.54 467.857C836.206 459.19 842.673 452.523 850.94 447.857C859.206 443.057 868.673 440.657 879.34 440.657C893.073 440.657 904.406 444.123 913.34 451.057C922.406 457.857 928.473 467.457 931.54 479.857H901.34C899.74 475.057 897.006 471.323 893.14 468.657C889.406 465.857 884.74 464.457 879.14 464.457C871.14 464.457 864.806 467.39 860.14 473.257C855.473 478.99 853.14 487.19 853.14 497.857C853.14 508.39 855.473 516.59 860.14 522.457C864.806 528.19 871.14 531.057 879.14 531.057C890.473 531.057 897.873 525.99 901.34 515.857H931.54C928.473 527.857 922.406 537.39 913.34 544.457C904.273 551.523 892.94 555.057 879.34 555.057C868.673 555.057 859.206 552.723 850.94 548.057C842.673 543.257 836.206 536.59 831.54 528.057C826.873 519.39 824.54 509.323 824.54 497.857ZM1001.25 555.057C990.586 555.057 980.986 552.723 972.452 548.057C963.919 543.257 957.186 536.523 952.252 527.857C947.452 519.19 945.052 509.19 945.052 497.857C945.052 486.523 947.519 476.523 952.452 467.857C957.519 459.19 964.386 452.523 973.052 447.857C981.719 443.057 991.386 440.657 1002.05 440.657C1012.72 440.657 1022.39 443.057 1031.05 447.857C1039.72 452.523 1046.52 459.19 1051.45 467.857C1056.52 476.523 1059.05 486.523 1059.05 497.857C1059.05 509.19 1056.45 519.19 1051.25 527.857C1046.19 536.523 1039.25 543.257 1030.45 548.057C1021.79 552.723 1012.05 555.057 1001.25 555.057ZM1001.25 530.657C1006.32 530.657 1011.05 529.457 1015.45 527.057C1019.99 524.523 1023.59 520.79 1026.25 515.857C1028.92 510.923 1030.25 504.923 1030.25 497.857C1030.25 487.323 1027.45 479.257 1021.85 473.657C1016.39 467.923 1009.65 465.057 1001.65 465.057C993.652 465.057 986.919 467.923 981.452 473.657C976.119 479.257 973.452 487.323 973.452 497.857C973.452 508.39 976.052 516.523 981.252 522.257C986.586 527.857 993.252 530.657 1001.25 530.657ZM1130.39 465.457H1110.99V553.257H1082.59V465.457H1069.99V442.457H1082.59V436.857C1082.59 423.257 1086.46 413.257 1094.19 406.857C1101.92 400.457 1113.59 397.457 1129.19 397.857V421.457C1122.39 421.323 1117.66 422.457 1114.99 424.857C1112.32 427.257 1110.99 431.59 1110.99 437.857V442.457H1130.39V465.457ZM1199.34 465.457H1179.94V553.257H1151.54V465.457H1138.94V442.457H1151.54V436.857C1151.54 423.257 1155.4 413.257 1163.14 406.857C1170.87 400.457 1182.54 397.457 1198.14 397.857V421.457C1191.34 421.323 1186.6 422.457 1183.94 424.857C1181.27 427.257 1179.94 431.59 1179.94 437.857V442.457H1199.34V465.457ZM1320.48 495.457C1320.48 499.457 1320.22 503.057 1319.68 506.257H1238.68C1239.35 514.257 1242.15 520.523 1247.08 525.057C1252.02 529.59 1258.08 531.857 1265.28 531.857C1275.68 531.857 1283.08 527.39 1287.48 518.457H1317.68C1314.48 529.123 1308.35 537.923 1299.28 544.857C1290.22 551.657 1279.08 555.057 1265.88 555.057C1255.22 555.057 1245.62 552.723 1237.08 548.057C1228.68 543.257 1222.08 536.523 1217.28 527.857C1212.62 519.19 1210.28 509.19 1210.28 497.857C1210.28 486.39 1212.62 476.323 1217.28 467.657C1221.95 458.99 1228.48 452.323 1236.88 447.657C1245.28 442.99 1254.95 440.657 1265.88 440.657C1276.42 440.657 1285.82 442.923 1294.08 447.457C1302.48 451.99 1308.95 458.457 1313.48 466.857C1318.15 475.123 1320.48 484.657 1320.48 495.457ZM1291.48 487.457C1291.35 480.257 1288.75 474.523 1283.68 470.257C1278.62 465.857 1272.42 463.657 1265.08 463.657C1258.15 463.657 1252.28 465.79 1247.48 470.057C1242.82 474.19 1239.95 479.99 1238.88 487.457H1291.48Z"/>
</mask>
<path d="M810.502 506.257V509.257H813.044L813.461 506.75L810.502 506.257ZM729.502 506.257V503.257H726.242L726.513 506.506L729.502 506.257ZM737.902 525.057L735.872 527.266L735.872 527.266L737.902 525.057ZM778.302 518.457V515.457H776.436L775.611 517.131L778.302 518.457ZM808.502 518.457L811.376 519.319L812.534 515.457H808.502V518.457ZM790.102 544.857L791.902 547.257L791.913 547.248L791.925 547.24L790.102 544.857ZM727.902 548.057L726.414 550.661L726.438 550.675L726.463 550.689L727.902 548.057ZM708.102 527.857L705.461 529.279L705.469 529.295L705.478 529.31L708.102 527.857ZM708.102 467.657L705.461 466.234L705.461 466.234L708.102 467.657ZM727.702 447.657L729.159 450.279L729.159 450.279L727.702 447.657ZM784.902 447.457L783.46 450.087L783.469 450.092L783.477 450.097L784.902 447.457ZM804.302 466.857L801.662 468.282L801.676 468.307L801.69 468.331L804.302 466.857ZM782.302 487.457V490.457H785.358L785.302 487.401L782.302 487.457ZM774.502 470.257L772.535 472.522L772.552 472.537L772.57 472.551L774.502 470.257ZM738.302 470.057L740.291 472.302L740.295 472.299L738.302 470.057ZM729.702 487.457L726.732 487.032L726.243 490.457H729.702V487.457ZM808.302 495.457C808.302 499.328 808.044 502.759 807.543 505.764L813.461 506.75C814.027 503.355 814.302 499.585 814.302 495.457H808.302ZM810.502 503.257H729.502V509.257H810.502V503.257ZM726.513 506.506C727.229 515.099 730.278 522.125 735.872 527.266L739.932 522.848C735.66 518.922 733.109 513.414 732.492 506.008L726.513 506.506ZM735.872 527.266C741.403 532.348 748.212 534.857 756.102 534.857V528.857C749.593 528.857 744.268 526.832 739.932 522.848L735.872 527.266ZM756.102 534.857C761.737 534.857 766.748 533.643 771.003 531.075C775.265 528.502 778.579 524.684 780.994 519.782L775.611 517.131C773.625 521.163 771.039 524.045 767.902 525.938C764.757 527.837 760.867 528.857 756.102 528.857V534.857ZM778.302 521.457H808.502V515.457H778.302V521.457ZM805.629 517.595C802.615 527.64 796.858 535.914 788.28 542.474L791.925 547.24C801.48 539.933 807.989 530.606 811.376 519.319L805.629 517.595ZM788.302 542.457C779.837 548.806 769.364 552.057 756.702 552.057V558.057C770.44 558.057 782.234 554.508 791.902 547.257L788.302 542.457ZM756.702 552.057C746.489 552.057 737.392 549.827 729.342 545.425L726.463 550.689C735.479 555.62 745.582 558.057 756.702 558.057V552.057ZM729.391 545.452C721.479 540.931 715.267 534.602 710.727 526.403L705.478 529.31C710.537 538.445 717.525 545.582 726.414 550.661L729.391 545.452ZM710.744 526.434C706.346 518.267 704.102 508.769 704.102 497.857H698.102C698.102 509.611 700.525 520.113 705.461 529.279L710.744 526.434ZM704.102 497.857C704.102 486.804 706.349 477.241 710.744 469.079L705.461 466.234C700.523 475.405 698.102 485.976 698.102 497.857H704.102ZM710.744 469.079C715.145 460.904 721.273 454.66 729.159 450.279L726.245 445.034C717.331 449.987 710.392 457.076 705.461 466.234L710.744 469.079ZM729.159 450.279C737.055 445.893 746.208 443.657 756.702 443.657V437.657C745.33 437.657 735.149 440.088 726.245 445.034L729.159 450.279ZM756.702 443.657C766.792 443.657 775.685 445.824 783.46 450.087L786.345 444.826C777.586 440.023 767.68 437.657 756.702 437.657V443.657ZM783.477 450.097C791.363 454.352 797.407 460.396 801.662 468.282L806.942 465.432C802.131 456.517 795.242 449.628 786.327 444.817L783.477 450.097ZM801.69 468.331C806.069 476.089 808.302 485.101 808.302 495.457H814.302C814.302 484.212 811.869 474.158 806.915 465.382L801.69 468.331ZM785.302 487.401C785.154 479.421 782.226 472.839 776.435 467.962L772.57 472.551C776.912 476.208 779.184 481.093 779.303 487.512L785.302 487.401ZM776.469 467.992C770.805 463.072 763.886 460.657 755.902 460.657V466.657C762.585 466.657 768.067 468.641 772.535 472.522L776.469 467.992ZM755.902 460.657C748.298 460.657 741.704 463.019 736.309 467.814L740.295 472.299C744.501 468.561 749.64 466.657 755.902 466.657V460.657ZM736.313 467.811C731.008 472.51 727.878 479.016 726.732 487.032L732.672 487.881C733.66 480.964 736.263 475.87 740.291 472.302L736.313 467.811ZM729.702 490.457H782.302V484.457H729.702V490.457ZM831.54 467.857L834.172 469.296L834.177 469.288L834.181 469.279L831.54 467.857ZM850.94 447.857L852.415 450.469L852.43 450.46L852.446 450.451L850.94 447.857ZM913.34 451.057L911.5 453.427L911.52 453.442L911.54 453.457L913.34 451.057ZM931.54 479.857V482.857H935.372L934.452 479.136L931.54 479.857ZM901.34 479.857L898.494 480.805L899.177 482.857H901.34V479.857ZM893.14 468.657L891.34 471.057L891.387 471.092L891.437 471.126L893.14 468.657ZM860.14 473.257L862.466 475.151L862.477 475.137L862.488 475.124L860.14 473.257ZM860.14 522.457L857.792 524.324L857.802 524.337L857.813 524.351L860.14 522.457ZM901.34 515.857V512.857H899.195L898.501 514.886L901.34 515.857ZM931.54 515.857L934.446 516.6L935.403 512.857H931.54V515.857ZM913.34 544.457L915.184 546.823L915.184 546.823L913.34 544.457ZM850.94 548.057L849.433 550.651L849.449 550.66L849.465 550.669L850.94 548.057ZM831.54 528.057L828.898 529.479L828.903 529.488L828.908 529.496L831.54 528.057ZM827.54 497.857C827.54 486.803 829.786 477.315 834.172 469.296L828.908 466.417C823.96 475.465 821.54 485.977 821.54 497.857H827.54ZM834.181 469.279C838.59 461.092 844.66 454.847 852.415 450.469L849.465 445.244C840.686 450.2 833.823 457.288 828.898 466.434L834.181 469.279ZM852.446 450.451C860.204 445.947 869.139 443.657 879.34 443.657V437.657C868.207 437.657 858.209 440.167 849.433 445.262L852.446 450.451ZM879.34 443.657C892.554 443.657 903.199 446.984 911.5 453.427L915.179 448.687C905.614 441.263 893.592 437.657 879.34 437.657V443.657ZM911.54 453.457C919.983 459.789 925.705 468.758 928.628 480.577L934.452 479.136C931.242 466.155 924.83 455.924 915.14 448.657L911.54 453.457ZM931.54 476.857H901.34V482.857H931.54V476.857ZM904.186 478.908C902.397 473.541 899.288 469.253 894.843 466.187L891.437 471.126C894.725 473.394 897.083 476.572 898.494 480.805L904.186 478.908ZM894.94 466.257C890.59 462.994 885.255 461.457 879.14 461.457V467.457C884.224 467.457 888.223 468.719 891.34 471.057L894.94 466.257ZM879.14 461.457C870.296 461.457 863.07 464.753 857.792 471.389L862.488 475.124C866.542 470.027 871.983 467.457 879.14 467.457V461.457ZM857.813 471.363C852.554 477.824 850.14 486.798 850.14 497.857H856.14C856.14 487.582 858.392 480.156 862.466 475.151L857.813 471.363ZM850.14 497.857C850.14 508.799 852.561 517.748 857.792 524.324L862.488 520.589C858.385 515.432 856.14 507.981 856.14 497.857H850.14ZM857.813 524.351C863.101 530.847 870.322 534.057 879.14 534.057V528.057C871.957 528.057 866.512 525.533 862.466 520.563L857.813 524.351ZM879.14 534.057C885.252 534.057 890.568 532.687 894.885 529.732C899.215 526.767 902.278 522.384 904.178 516.828L898.501 514.886C896.935 519.463 894.564 522.68 891.495 524.781C888.411 526.893 884.361 528.057 879.14 528.057V534.057ZM901.34 518.857H931.54V512.857H901.34V518.857ZM928.633 515.114C925.717 526.523 919.996 535.465 911.496 542.091L915.184 546.823C924.816 539.315 931.229 529.19 934.446 516.6L928.633 515.114ZM911.496 542.091C903.048 548.675 892.399 552.057 879.34 552.057V558.057C893.481 558.057 905.498 554.372 915.184 546.823L911.496 542.091ZM879.34 552.057C869.125 552.057 860.178 549.827 852.415 545.444L849.465 550.669C858.235 555.62 868.221 558.057 879.34 558.057V552.057ZM852.446 545.462C844.662 540.942 838.581 534.679 834.172 526.617L828.908 529.496C833.832 538.501 840.684 545.571 849.433 550.651L852.446 545.462ZM834.181 526.634C829.786 518.472 827.54 508.909 827.54 497.857H821.54C821.54 509.738 823.96 520.308 828.898 529.479L834.181 526.634ZM972.452 548.057L970.981 550.671L970.997 550.68L971.013 550.689L972.452 548.057ZM952.252 527.857L949.628 529.31L949.636 529.326L949.645 529.341L952.252 527.857ZM952.452 467.857L949.862 466.343L949.854 466.358L949.845 466.373L952.452 467.857ZM973.052 447.857L974.475 450.498L974.49 450.49L974.506 450.481L973.052 447.857ZM1031.05 447.857L1029.6 450.481L1029.61 450.49L1029.63 450.498L1031.05 447.857ZM1051.45 467.857L1048.85 469.341L1048.85 469.356L1048.86 469.371L1051.45 467.857ZM1051.25 527.857L1048.68 526.313L1048.67 526.328L1048.66 526.343L1051.25 527.857ZM1030.45 548.057L1031.87 550.698L1031.88 550.694L1031.89 550.69L1030.45 548.057ZM1015.45 527.057L1016.89 529.69L1016.9 529.683L1016.92 529.676L1015.45 527.057ZM1026.25 515.857L1028.89 517.283L1028.89 517.283L1026.25 515.857ZM1021.85 473.657L1019.68 475.727L1019.71 475.753L1019.73 475.778L1021.85 473.657ZM981.452 473.657L979.281 471.586L979.28 471.588L981.452 473.657ZM981.252 522.257L979.03 524.272L979.055 524.299L979.08 524.326L981.252 522.257ZM1001.25 552.057C991.039 552.057 981.942 549.827 973.892 545.425L971.013 550.689C980.029 555.62 990.132 558.057 1001.25 558.057V552.057ZM973.923 545.442C965.873 540.914 959.529 534.576 954.859 526.373L949.645 529.341C954.842 538.471 961.965 545.599 970.981 550.671L973.923 545.442ZM954.877 526.403C950.357 518.242 948.052 508.756 948.052 497.857H942.052C942.052 509.624 944.548 520.138 949.628 529.31L954.877 526.403ZM948.052 497.857C948.052 486.972 950.417 477.496 955.059 469.341L949.845 466.373C944.621 475.55 942.052 486.075 942.052 497.857H948.052ZM955.042 469.371C959.836 461.17 966.303 454.898 974.475 450.498L971.63 445.215C962.468 450.149 955.201 457.21 949.862 466.343L955.042 469.371ZM974.506 450.481C982.694 445.946 991.854 443.657 1002.05 443.657V437.657C990.917 437.657 980.744 440.167 971.599 445.232L974.506 450.481ZM1002.05 443.657C1012.25 443.657 1021.41 445.946 1029.6 450.481L1032.51 445.232C1023.36 440.167 1013.19 437.657 1002.05 437.657V443.657ZM1029.63 450.498C1037.79 454.894 1044.19 461.157 1048.85 469.341L1054.06 466.373C1048.85 457.223 1041.64 450.153 1032.47 445.215L1029.63 450.498ZM1048.86 469.371C1053.63 477.521 1056.05 486.985 1056.05 497.857H1062.05C1062.05 486.061 1059.41 475.526 1054.04 466.343L1048.86 469.371ZM1056.05 497.857C1056.05 508.714 1053.57 518.168 1048.68 526.313L1053.82 529.4C1059.34 520.213 1062.05 509.666 1062.05 497.857H1056.05ZM1048.66 526.343C1043.87 534.539 1037.34 540.885 1029.02 545.423L1031.89 550.69C1041.17 545.629 1048.5 538.508 1053.84 529.371L1048.66 526.343ZM1029.03 545.415C1020.84 549.824 1011.61 552.057 1001.25 552.057V558.057C1012.5 558.057 1022.73 555.622 1031.87 550.698L1029.03 545.415ZM1001.25 533.657C1006.82 533.657 1012.04 532.333 1016.89 529.69L1014.02 524.423C1010.06 526.58 1005.82 527.657 1001.25 527.657V533.657ZM1016.92 529.676C1021.99 526.842 1025.98 522.676 1028.89 517.283L1023.61 514.43C1021.19 518.904 1017.99 522.205 1013.99 524.438L1016.92 529.676ZM1028.89 517.283C1031.85 511.812 1033.25 505.294 1033.25 497.857H1027.25C1027.25 504.552 1025.99 510.035 1023.61 514.43L1028.89 517.283ZM1033.25 497.857C1033.25 486.799 1030.3 477.865 1023.97 471.535L1019.73 475.778C1024.6 480.649 1027.25 487.848 1027.25 497.857H1033.25ZM1024.02 471.586C1017.98 465.253 1010.46 462.057 1001.65 462.057V468.057C1008.84 468.057 1014.79 470.594 1019.68 475.727L1024.02 471.586ZM1001.65 462.057C992.841 462.057 985.32 465.253 979.281 471.586L983.623 475.727C988.518 470.594 994.464 468.057 1001.65 468.057V462.057ZM979.28 471.588C973.247 477.922 970.452 486.837 970.452 497.857H976.452C976.452 487.81 978.991 480.592 983.625 475.726L979.28 471.588ZM970.452 497.857C970.452 508.863 973.173 517.814 979.03 524.272L983.474 520.241C978.932 515.233 976.452 507.917 976.452 497.857H970.452ZM979.08 524.326C985.001 530.543 992.463 533.657 1001.25 533.657V527.657C994.041 527.657 988.17 525.171 983.425 520.188L979.08 524.326ZM1130.39 465.457V468.457H1133.39V465.457H1130.39ZM1110.99 465.457V462.457H1107.99V465.457H1110.99ZM1110.99 553.257V556.257H1113.99V553.257H1110.99ZM1082.59 553.257H1079.59V556.257H1082.59V553.257ZM1082.59 465.457H1085.59V462.457H1082.59V465.457ZM1069.99 465.457H1066.99V468.457H1069.99V465.457ZM1069.99 442.457V439.457H1066.99V442.457H1069.99ZM1082.59 442.457V445.457H1085.59V442.457H1082.59ZM1094.19 406.857L1092.28 404.546L1092.28 404.546L1094.19 406.857ZM1129.19 397.857H1132.19V394.933L1129.27 394.858L1129.19 397.857ZM1129.19 421.457L1129.13 424.456L1132.19 424.516V421.457H1129.19ZM1114.99 424.857L1112.98 422.627L1114.99 424.857ZM1110.99 442.457H1107.99V445.457H1110.99V442.457ZM1130.39 442.457H1133.39V439.457H1130.39V442.457ZM1130.39 462.457H1110.99V468.457H1130.39V462.457ZM1107.99 465.457V553.257H1113.99V465.457H1107.99ZM1110.99 550.257H1082.59V556.257H1110.99V550.257ZM1085.59 553.257V465.457H1079.59V553.257H1085.59ZM1082.59 462.457H1069.99V468.457H1082.59V462.457ZM1072.99 465.457V442.457H1066.99V465.457H1072.99ZM1069.99 445.457H1082.59V439.457H1069.99V445.457ZM1085.59 442.457V436.857H1079.59V442.457H1085.59ZM1085.59 436.857C1085.59 423.815 1089.28 414.814 1096.1 409.168L1092.28 404.546C1083.63 411.7 1079.59 422.699 1079.59 436.857H1085.59ZM1096.1 409.168C1103.04 403.427 1113.86 400.464 1129.11 400.856L1129.27 394.858C1113.33 394.449 1100.81 397.487 1092.28 404.546L1096.1 409.168ZM1126.19 397.857V421.457H1132.19V397.857H1126.19ZM1129.25 418.457C1122.29 418.321 1116.55 419.422 1112.98 422.627L1117 427.087C1118.77 425.491 1122.49 424.326 1129.13 424.456L1129.25 418.457ZM1112.98 422.627C1109.35 425.9 1107.99 431.337 1107.99 437.857H1113.99C1113.99 431.843 1115.3 428.613 1117 427.087L1112.98 422.627ZM1107.99 437.857V442.457H1113.99V437.857H1107.99ZM1110.99 445.457H1130.39V439.457H1110.99V445.457ZM1127.39 442.457V465.457H1133.39V442.457H1127.39ZM1199.34 465.457V468.457H1202.34V465.457H1199.34ZM1179.94 465.457V462.457H1176.94V465.457H1179.94ZM1179.94 553.257V556.257H1182.94V553.257H1179.94ZM1151.54 553.257H1148.54V556.257H1151.54V553.257ZM1151.54 465.457H1154.54V462.457H1151.54V465.457ZM1138.94 465.457H1135.94V468.457H1138.94V465.457ZM1138.94 442.457V439.457H1135.94V442.457H1138.94ZM1151.54 442.457V445.457H1154.54V442.457H1151.54ZM1163.14 406.857L1161.22 404.546L1161.22 404.546L1163.14 406.857ZM1198.14 397.857H1201.14V394.933L1198.21 394.858L1198.14 397.857ZM1198.14 421.457L1198.08 424.456L1201.14 424.516V421.457H1198.14ZM1183.94 424.857L1181.93 422.627L1183.94 424.857ZM1179.94 442.457H1176.94V445.457H1179.94V442.457ZM1199.34 442.457H1202.34V439.457H1199.34V442.457ZM1199.34 462.457H1179.94V468.457H1199.34V462.457ZM1176.94 465.457V553.257H1182.94V465.457H1176.94ZM1179.94 550.257H1151.54V556.257H1179.94V550.257ZM1154.54 553.257V465.457H1148.54V553.257H1154.54ZM1151.54 462.457H1138.94V468.457H1151.54V462.457ZM1141.94 465.457V442.457H1135.94V465.457H1141.94ZM1138.94 445.457H1151.54V439.457H1138.94V445.457ZM1154.54 442.457V436.857H1148.54V442.457H1154.54ZM1154.54 436.857C1154.54 423.815 1158.23 414.814 1165.05 409.168L1161.22 404.546C1152.58 411.7 1148.54 422.699 1148.54 436.857H1154.54ZM1165.05 409.168C1171.99 403.427 1182.8 400.464 1198.06 400.856L1198.21 394.858C1182.27 394.449 1169.75 397.487 1161.22 404.546L1165.05 409.168ZM1195.14 397.857V421.457H1201.14V397.857H1195.14ZM1198.2 418.457C1191.24 418.321 1185.49 419.422 1181.93 422.627L1185.94 427.087C1187.72 425.491 1191.44 424.326 1198.08 424.456L1198.2 418.457ZM1181.93 422.627C1178.29 425.9 1176.94 431.337 1176.94 437.857H1182.94C1182.94 431.843 1184.25 428.613 1185.94 427.087L1181.93 422.627ZM1176.94 437.857V442.457H1182.94V437.857H1176.94ZM1179.94 445.457H1199.34V439.457H1179.94V445.457ZM1196.34 442.457V465.457H1202.34V442.457H1196.34ZM1319.68 506.257V509.257H1322.22L1322.64 506.75L1319.68 506.257ZM1238.68 506.257V503.257H1235.42L1235.69 506.506L1238.68 506.257ZM1247.08 525.057L1245.05 527.266L1245.05 527.266L1247.08 525.057ZM1287.48 518.457V515.457H1285.62L1284.79 517.131L1287.48 518.457ZM1317.68 518.457L1320.56 519.319L1321.71 515.457H1317.68V518.457ZM1299.28 544.857L1301.08 547.257L1301.09 547.248L1301.1 547.24L1299.28 544.857ZM1237.08 548.057L1235.59 550.661L1235.62 550.675L1235.64 550.689L1237.08 548.057ZM1217.28 527.857L1214.64 529.279L1214.65 529.295L1214.66 529.31L1217.28 527.857ZM1217.28 467.657L1214.64 466.234L1214.64 466.234L1217.28 467.657ZM1236.88 447.657L1238.34 450.279L1238.34 450.279L1236.88 447.657ZM1294.08 447.457L1292.64 450.087L1292.65 450.092L1292.66 450.097L1294.08 447.457ZM1313.48 466.857L1310.84 468.282L1310.86 468.307L1310.87 468.331L1313.48 466.857ZM1291.48 487.457V490.457H1294.54L1294.48 487.401L1291.48 487.457ZM1283.68 470.257L1281.71 472.522L1281.73 472.537L1281.75 472.551L1283.68 470.257ZM1247.48 470.057L1249.47 472.302L1249.48 472.299L1247.48 470.057ZM1238.88 487.457L1235.91 487.032L1235.42 490.457H1238.88V487.457ZM1317.48 495.457C1317.48 499.328 1317.22 502.759 1316.72 505.764L1322.64 506.75C1323.21 503.355 1323.48 499.585 1323.48 495.457H1317.48ZM1319.68 503.257H1238.68V509.257H1319.68V503.257ZM1235.69 506.506C1236.41 515.099 1239.46 522.125 1245.05 527.266L1249.11 522.848C1244.84 518.922 1242.29 513.414 1241.67 506.008L1235.69 506.506ZM1245.05 527.266C1250.58 532.348 1257.39 534.857 1265.28 534.857V528.857C1258.77 528.857 1253.45 526.832 1249.11 522.848L1245.05 527.266ZM1265.28 534.857C1270.92 534.857 1275.93 533.643 1280.18 531.075C1284.44 528.502 1287.76 524.684 1290.17 519.782L1284.79 517.131C1282.8 521.163 1280.22 524.045 1277.08 525.938C1273.94 527.837 1270.05 528.857 1265.28 528.857V534.857ZM1287.48 521.457H1317.68V515.457H1287.48V521.457ZM1314.81 517.595C1311.79 527.64 1306.04 535.914 1297.46 542.474L1301.1 547.24C1310.66 539.933 1317.17 530.606 1320.56 519.319L1314.81 517.595ZM1297.48 542.457C1289.02 548.806 1278.54 552.057 1265.88 552.057V558.057C1279.62 558.057 1291.41 554.508 1301.08 547.257L1297.48 542.457ZM1265.88 552.057C1255.67 552.057 1246.57 549.827 1238.52 545.425L1235.64 550.689C1244.66 555.62 1254.76 558.057 1265.88 558.057V552.057ZM1238.57 545.452C1230.66 540.931 1224.45 534.602 1219.91 526.403L1214.66 529.31C1219.72 538.445 1226.7 545.582 1235.59 550.661L1238.57 545.452ZM1219.92 526.434C1215.53 518.267 1213.28 508.769 1213.28 497.857H1207.28C1207.28 509.611 1209.71 520.113 1214.64 529.279L1219.92 526.434ZM1213.28 497.857C1213.28 486.804 1215.53 477.241 1219.92 469.079L1214.64 466.234C1209.7 475.405 1207.28 485.976 1207.28 497.857H1213.28ZM1219.92 469.079C1224.33 460.904 1230.45 454.66 1238.34 450.279L1235.43 445.034C1226.51 449.987 1219.57 457.076 1214.64 466.234L1219.92 469.079ZM1238.34 450.279C1246.23 445.893 1255.39 443.657 1265.88 443.657V437.657C1254.51 437.657 1244.33 440.088 1235.43 445.034L1238.34 450.279ZM1265.88 443.657C1275.97 443.657 1284.86 445.824 1292.64 450.087L1295.52 444.826C1286.77 440.023 1276.86 437.657 1265.88 437.657V443.657ZM1292.66 450.097C1300.54 454.352 1306.59 460.396 1310.84 468.282L1316.12 465.432C1311.31 456.517 1304.42 449.628 1295.51 444.817L1292.66 450.097ZM1310.87 468.331C1315.25 476.089 1317.48 485.101 1317.48 495.457H1323.48C1323.48 484.212 1321.05 474.158 1316.09 465.382L1310.87 468.331ZM1294.48 487.401C1294.33 479.421 1291.41 472.839 1285.61 467.962L1281.75 472.551C1286.09 476.208 1288.36 481.093 1288.48 487.512L1294.48 487.401ZM1285.65 467.992C1279.98 463.072 1273.07 460.657 1265.08 460.657V466.657C1271.76 466.657 1277.25 468.641 1281.71 472.522L1285.65 467.992ZM1265.08 460.657C1257.48 460.657 1250.88 463.019 1245.49 467.814L1249.48 472.299C1253.68 468.561 1258.82 466.657 1265.08 466.657V460.657ZM1245.49 467.811C1240.19 472.51 1237.06 479.016 1235.91 487.032L1241.85 487.881C1242.84 480.964 1245.44 475.87 1249.47 472.302L1245.49 467.811ZM1238.88 490.457H1291.48V484.457H1238.88V490.457Z" fill="#F7B787" mask="url(#path-7-outside-4_11_51)"/>
</g>
<defs>
<clipPath id="clip0_11_51">
<rect width="1280" height="832" fill="white"/>
</clipPath>
</defs>
</svg>
